RobotoFlex-opsz144-wght1000.ufo
<glyph name="slash" format="2">
	<unicode hex="002F"/>
	<advance width="932"/>
	<outline>
		<contour>
			<point x="-100" y="-125" type="line"/>
			<point x="479" y="1456" type="line"/>
			<point x="976" y="1456" type="line"/>
			<point x="396" y="-125" type="line"/>
		</contour>
	</outline>
</glyph>
<glyph name="at" format="2">
  <advance width="2187"/>
  <unicode hex="0040"/>
  <outline>
    <contour>
      <point x="582" y="400" type="qcurve" smooth="yes"/>
      <point x="582" y="705"/>
      <point x="923" y="1052"/>
      <point x="1148" y="1052" type="qcurve" smooth="yes"/>
      <point x="1230" y="1052"/>
      <point x="1373" y="1003"/>
      <point x="1415" y="946" type="qcurve"/>
      <point x="1721" y="946" type="line"/>
      <point x="1616" y="350" type="line" smooth="yes"/>
      <point x="1609" y="308"/>
      <point x="1616" y="276"/>
      <point x="1645" y="275" type="qcurve" smooth="yes"/>
      <point x="1697" y="274"/>
      <point x="1764" y="435"/>
      <point x="1764" y="599" type="qcurve" smooth="yes"/>
      <point x="1764" y="839"/>
      <point x="1446" y="1128"/>
      <point x="1158" y="1128" type="qcurve" smooth="yes"/>
      <point x="877" y="1128"/>
      <point x="505" y="735"/>
      <point x="505" y="409" type="qcurve" smooth="yes"/>
      <point x="505" y="173"/>
      <point x="754" y="-70"/>
      <point x="991" y="-70" type="qcurve" smooth="yes"/>
      <point x="1113" y="-70"/>
      <point x="1285" y="-25"/>
      <point x="1341" y="10" type="qcurve"/>
      <point x="1341" y="-366" type="line"/>
      <point x="1281" y="-408"/>
      <point x="1113" y="-446"/>
      <point x="991" y="-446" type="qcurve" smooth="yes"/>
      <point x="596" y="-446"/>
      <point x="20" y="40"/>
      <point x="20" y="460" type="qcurve" smooth="yes"/>
      <point x="20" y="880"/>
      <point x="695" y="1486"/>
      <point x="1158" y="1486" type="qcurve" smooth="yes"/>
      <point x="1602" y="1486"/>
      <point x="2167" y="1000"/>
      <point x="2167" y="650" type="qcurve" smooth="yes"/>
      <point x="2167" y="360"/>
      <point x="1852" y="0"/>
      <point x="1585" y="0" type="qcurve" smooth="yes"/>
      <point x="1425" y="0"/>
      <point x="1243" y="96"/>
      <point x="1206" y="180" type="qcurve"/>
      <point x="1161" y="98"/>
      <point x="1020" y="0"/>
      <point x="941" y="0" type="qcurve" smooth="yes"/>
      <point x="777" y="0"/>
      <point x="582" y="220"/>
    </contour>
    <contour>
      <point x="1079" y="427" type="qcurve" smooth="yes"/>
      <point x="1079" y="366"/>
      <point x="1098" y="329"/>
      <point x="1116" y="329" type="qcurve" smooth="yes"/>
      <point x="1139" y="329"/>
      <point x="1168" y="366"/>
      <point x="1176" y="415" type="qcurve" smooth="yes"/>
      <point x="1227" y="742" type="line"/>
      <point x="1215" y="752"/>
      <point x="1194" y="760"/>
      <point x="1182" y="760" type="qcurve" smooth="yes"/>
      <point x="1143" y="760"/>
      <point x="1079" y="555"/>
    </contour>
  </outline>
</glyph>
<glyph name="C" format="2">
  <advance width="1359"/>
  <unicode hex="0043"/>
  <anchor x="712" y="0" name="bottom"/>
  <anchor x="712" y="1456" name="top"/>
  <outline>
    <contour>
      <point x="24" y="689" type="qcurve" smooth="yes"/>
      <point x="24" y="767" type="line" smooth="yes"/>
      <point x="24" y="1151"/>
      <point x="403" y="1475"/>
      <point x="712" y="1475" type="qcurve" smooth="yes"/>
      <point x="1000" y="1475"/>
      <point x="1335" y="1234"/>
      <point x="1335" y="958" type="qcurve" smooth="yes"/>
      <point x="1335" y="804" type="line"/>
      <point x="778" y="804" type="line"/>
      <point x="778" y="1024" type="line" smooth="yes"/>
      <point x="778" y="1049"/>
      <point x="750" y="1082"/>
      <point x="726" y="1082" type="qcurve" smooth="yes"/>
      <point x="699" y="1082"/>
      <point x="668" y="1036"/>
      <point x="668" y="975" type="qcurve" smooth="yes"/>
      <point x="668" y="480" type="line" smooth="yes"/>
      <point x="668" y="412"/>
      <point x="698" y="362"/>
      <point x="726" y="362" type="qcurve" smooth="yes"/>
      <point x="753" y="362"/>
      <point x="778" y="414"/>
      <point x="778" y="480" type="qcurve" smooth="yes"/>
      <point x="778" y="642" type="line"/>
      <point x="1335" y="642" type="line"/>
      <point x="1335" y="460" type="line" smooth="yes"/>
      <point x="1336" y="228"/>
      <point x="1000" y="-19"/>
      <point x="712" y="-19" type="qcurve" smooth="yes"/>
      <point x="399" y="-19"/>
      <point x="24" y="312"/>
    </contour>
  </outline>
</glyph>
<glyph name="D" format="2">
  <advance width="1378"/>
  <unicode hex="0044"/>
  <anchor x="562.0" y="0" name="bottom"/>
  <anchor x="689.0" y="728.0" name="center"/>
  <anchor x="562.0" y="1456" name="top"/>
  <outline>
    <contour>
      <point x="40" y="0" type="line"/>
      <point x="40" y="1456" type="line"/>
      <point x="736" y="1456" type="line" smooth="yes"/>
      <point x="1033" y="1456"/>
      <point x="1354" y="1097"/>
      <point x="1354" y="772" type="qcurve" smooth="yes"/>
      <point x="1354" y="694" type="line" smooth="yes"/>
      <point x="1354" y="370"/>
      <point x="1027" y="0"/>
      <point x="736" y="0" type="qcurve" smooth="yes"/>
    </contour>
    <contour>
      <point x="620" y="392" type="line"/>
      <point x="662" y="392" type="line" smooth="yes"/>
      <point x="706" y="392"/>
      <point x="751" y="478"/>
      <point x="751" y="591" type="qcurve" smooth="yes"/>
      <point x="751" y="861" type="line" smooth="yes"/>
      <point x="751" y="978"/>
      <point x="709" y="1044"/>
      <point x="662" y="1044" type="qcurve" smooth="yes"/>
      <point x="620" y="1044" type="line"/>
    </contour>
  </outline>
</glyph>
<glyph name="I" format="2">
  <advance width="698"/>
  <unicode hex="0049"/>
  <anchor x="349.0" y="0" name="bottom"/>
  <anchor x="174" y="0" name="ogonek"/>
  <anchor x="349.0" y="1456" name="top"/>
  <outline>
    <contour>
      <point x="44" y="0" type="line"/>
      <point x="44" y="1456" type="line"/>
      <point x="654" y="1456" type="line"/>
      <point x="654" y="0" type="line"/>
    </contour>
  </outline>
</glyph>
<glyph name="J" format="2">
  <advance width="1273"/>
  <unicode hex="004A"/>
  <anchor x="631" y="0" name="bottom"/>
  <anchor x="940" y="1456" name="top"/>
  <outline>
    <contour>
      <point x="25" y="535" type="qcurve" smooth="yes"/>
      <point x="25" y="645" type="line"/>
      <point x="543" y="645" type="line"/>
      <point x="543" y="438" type="line" smooth="yes"/>
      <point x="543" y="398"/>
      <point x="565" y="362"/>
      <point x="587" y="362" type="qcurve" smooth="yes"/>
      <point x="608" y="362"/>
      <point x="632" y="402"/>
      <point x="632" y="449" type="qcurve" smooth="yes"/>
      <point x="632" y="1456" type="line"/>
      <point x="1233" y="1456" type="line"/>
      <point x="1233" y="548" type="line" smooth="yes"/>
      <point x="1233" y="278"/>
      <point x="940" y="-20"/>
      <point x="630" y="-20" type="qcurve" smooth="yes"/>
      <point x="333" y="-20"/>
      <point x="25" y="239"/>
    </contour>
  </outline>
</glyph>
<glyph name="T" format="2">
  <advance width="1308"/>
  <unicode hex="0054"/>
  <anchor x="654.0" y="0" name="bottom"/>
  <anchor x="654.0" y="728.0" name="center"/>
  <anchor x="654.0" y="1456" name="top"/>
  <outline>
    <contour>
      <point x="4" y="990" type="line"/>
      <point x="4" y="1456" type="line"/>
      <point x="1304" y="1456" type="line"/>
      <point x="1304" y="990" type="line"/>
      <point x="960" y="990" type="line"/>
      <point x="960" y="0" type="line"/>
      <point x="350" y="0" type="line"/>
      <point x="350" y="990" type="line"/>
    </contour>
  </outline>
</glyph>
<glyph name="V" format="2">
  <advance width="1422"/>
  <unicode hex="0056"/>
  <outline>
    <contour>
      <point x="-60" y="1456" type="line"/>
      <point x="546" y="1456" type="line"/>
      <point x="707" y="847" type="line" smooth="yes"/>
      <point x="710" y="836"/>
      <point x="717" y="808"/>
      <point x="722" y="789" type="qcurve"/>
      <point x="726" y="789" type="line"/>
      <point x="731" y="808"/>
      <point x="738" y="836"/>
      <point x="741" y="847" type="qcurve" smooth="yes"/>
      <point x="894" y="1456" type="line"/>
      <point x="1482" y="1456" type="line"/>
      <point x="1042" y="-9" type="line"/>
      <point x="380" y="-9" type="line"/>
    </contour>
  </outline>
</glyph>
<glyph name="bracketright" format="2">
	<unicode hex="005D"/>
	<advance width="812"/>
	<outline>
		<contour>
			<point x="738" y="-310" type="line"/>
			<point x="20" y="-310" type="line"/>
			<point x="20" y="85" type="line"/>
			<point x="211" y="85" type="line"/>
			<point x="211" y="1061" type="line"/>
			<point x="20" y="1061" type="line"/>
			<point x="20" y="1456" type="line"/>
			<point x="738" y="1456" type="line"/>
		</contour>
	</outline>
</glyph>
<glyph name="grave" format="2">
  <advance width="1024"/>
  <unicode hex="0060"/>
  <outline>
    <contour>
      <point x="318" y="1000" type="line"/>
      <point x="60" y="1370" type="line"/>
      <point x="534" y="1474" type="line"/>
      <point x="743" y="1108" type="line"/>
    </contour>
  </outline>
</glyph>
<glyph name="a" format="2">
  <advance width="1325"/>
  <unicode hex="0061"/>
  <anchor x="662.5" y="0" name="bottom"/>
  <anchor x="863" y="0" name="ogonek"/>
  <anchor x="710" y="914" name="top"/>
  <outline>
    <contour>
      <point x="20" y="267" type="qcurve" smooth="yes"/>
      <point x="20" y="406"/>
      <point x="252" y="576"/>
      <point x="448" y="576" type="qcurve" smooth="yes"/>
      <point x="700" y="576" type="line"/>
      <point x="700" y="598" type="line" smooth="yes"/>
      <point x="700" y="628"/>
      <point x="681" y="661"/>
      <point x="659" y="661" type="qcurve" smooth="yes"/>
      <point x="638" y="661"/>
      <point x="615" y="632"/>
      <point x="615" y="607" type="qcurve" smooth="yes"/>
      <point x="615" y="589" type="line"/>
      <point x="98" y="592" type="line"/>
      <point x="98" y="605" type="line" smooth="yes"/>
      <point x="98" y="766"/>
      <point x="424" y="942"/>
      <point x="709" y="942" type="qcurve" smooth="yes"/>
      <point x="1009" y="942"/>
      <point x="1280" y="761"/>
      <point x="1280" y="569" type="qcurve" smooth="yes"/>
      <point x="1280" y="182" type="line" smooth="yes"/>
      <point x="1280" y="132"/>
      <point x="1301" y="45"/>
      <point x="1323" y="12" type="qcurve"/>
      <point x="1323" y="0" type="line"/>
      <point x="744" y="0" type="line"/>
      <point x="727" y="24"/>
      <point x="713" y="76"/>
      <point x="710" y="108" type="qcurve"/>
      <point x="674" y="63"/>
      <point x="495" y="-13"/>
      <point x="362" y="-13" type="qcurve" smooth="yes"/>
      <point x="199" y="-13"/>
      <point x="20" y="128"/>
    </contour>
    <contour>
      <point x="590" y="313" type="qcurve" smooth="yes"/>
      <point x="590" y="286"/>
      <point x="614" y="260"/>
      <point x="636" y="260" type="qcurve" smooth="yes"/>
      <point x="660" y="260"/>
      <point x="700" y="306"/>
      <point x="700" y="334" type="qcurve" smooth="yes"/>
      <point x="700" y="377" type="line"/>
      <point x="655" y="377" type="line" smooth="yes"/>
      <point x="622" y="377"/>
      <point x="590" y="343"/>
    </contour>
  </outline>
</glyph>
<glyph name="b" format="2">
  <advance width="1340"/>
  <unicode hex="0062"/>
  <anchor x="670.0" y="0" name="bottom"/>
  <anchor x="670.0" y="914" name="top"/>
  <outline>
    <contour>
      <point x="45" y="0" type="line"/>
      <point x="45" y="1456" type="line"/>
      <point x="622" y="1456" type="line"/>
      <point x="622" y="805" type="line"/>
      <point x="669" y="869"/>
      <point x="806" y="944"/>
      <point x="906" y="944" type="qcurve" smooth="yes"/>
      <point x="1078" y="944"/>
      <point x="1320" y="684"/>
      <point x="1320" y="484" type="qcurve" smooth="yes"/>
      <point x="1320" y="452" type="line" smooth="yes"/>
      <point x="1320" y="252"/>
      <point x="1068" y="-20"/>
      <point x="896" y="-20" type="qcurve" smooth="yes"/>
      <point x="796" y="-20"/>
      <point x="661" y="31"/>
      <point x="618" y="85" type="qcurve"/>
      <point x="617" y="85" type="line"/>
      <point x="617" y="0" type="line"/>
    </contour>
    <contour>
      <point x="622" y="396" type="line"/>
      <point x="629" y="376"/>
      <point x="657" y="345"/>
      <point x="680" y="345" type="qcurve" smooth="yes"/>
      <point x="708" y="345"/>
      <point x="737" y="409"/>
      <point x="737" y="456" type="qcurve" smooth="yes"/>
      <point x="737" y="465" type="line" smooth="yes"/>
      <point x="737" y="512"/>
      <point x="708" y="569"/>
      <point x="678" y="569" type="qcurve" smooth="yes"/>
      <point x="657" y="569"/>
      <point x="629" y="538"/>
      <point x="622" y="518" type="qcurve"/>
    </contour>
  </outline>
</glyph>
<glyph name="c" format="2">
  <advance width="1282"/>
  <unicode hex="0063"/>
  <anchor x="639.0" y="0" name="bottom"/>
  <anchor x="634.0" y="915" name="top"/>
  <outline>
    <contour>
      <point x="20" y="445" type="qcurve" smooth="yes"/>
      <point x="20" y="479" type="line" smooth="yes"/>
      <point x="20" y="700"/>
      <point x="351" y="952"/>
      <point x="634" y="952" type="qcurve" smooth="yes"/>
      <point x="922" y="952"/>
      <point x="1245" y="747"/>
      <point x="1260" y="518" type="qcurve" smooth="yes"/>
      <point x="1262" y="489" type="line"/>
      <point x="707" y="489" type="line"/>
      <point x="707" y="499" type="line" smooth="yes"/>
      <point x="707" y="530"/>
      <point x="684" y="569"/>
      <point x="657" y="569" type="qcurve" smooth="yes"/>
      <point x="630" y="569"/>
      <point x="603" y="533"/>
      <point x="603" y="501" type="qcurve" smooth="yes"/>
      <point x="603" y="425" type="line" smooth="yes"/>
      <point x="603" y="385"/>
      <point x="629" y="350"/>
      <point x="657" y="350" type="qcurve" smooth="yes"/>
      <point x="685" y="350"/>
      <point x="706" y="382"/>
      <point x="708" y="403" type="qcurve" smooth="yes"/>
      <point x="708" y="416" type="line"/>
      <point x="1262" y="416" type="line"/>
      <point x="1261" y="385" type="line" smooth="yes"/>
      <point x="1253" y="168"/>
      <point x="932" y="-27"/>
      <point x="639" y="-27" type="qcurve" smooth="yes"/>
      <point x="357" y="-27"/>
      <point x="20" y="226"/>
    </contour>
  </outline>
</glyph>
<glyph name="e" format="2">
  <advance width="1276"/>
  <unicode hex="0065"/>
  <anchor x="668.0" y="0" name="bottom"/>
  <anchor x="757" y="0" name="ogonek"/>
  <anchor x="661.0" y="914" name="top"/>
  <outline>
    <contour>
      <point x="20" y="447" type="qcurve" smooth="yes"/>
      <point x="20" y="479" type="line" smooth="yes"/>
      <point x="20" y="699"/>
      <point x="363" y="950"/>
      <point x="660" y="950" type="qcurve" smooth="yes"/>
      <point x="945" y="950"/>
      <point x="1256" y="696"/>
      <point x="1256" y="487" type="qcurve" smooth="yes"/>
      <point x="1256" y="425" type="line"/>
      <point x="319" y="425" type="line"/>
      <point x="319" y="506" type="line"/>
      <point x="703" y="506" type="line"/>
      <point x="703" y="516" type="line" smooth="yes"/>
      <point x="703" y="547"/>
      <point x="681" y="581"/>
      <point x="653" y="581" type="qcurve" smooth="yes"/>
      <point x="626" y="581"/>
      <point x="598" y="544"/>
      <point x="598" y="494" type="qcurve" smooth="yes"/>
      <point x="598" y="443" type="line" smooth="yes"/>
      <point x="598" y="386"/>
      <point x="632" y="345"/>
      <point x="664" y="345" type="qcurve"/>
      <point x="698" y="345"/>
      <point x="733" y="374"/>
      <point x="742" y="399" type="qcurve"/>
      <point x="1253" y="334" type="line"/>
      <point x="1199" y="147"/>
      <point x="928" y="-27"/>
      <point x="667" y="-27" type="qcurve" smooth="yes"/>
      <point x="359" y="-27"/>
      <point x="20" y="222"/>
    </contour>
  </outline>
</glyph>
<glyph name="g" format="2">
  <advance width="1323"/>
  <unicode hex="0067"/>
  <anchor x="661.5" y="-416" name="bottom"/>
  <anchor x="661.5" y="914" name="top"/>
  <outline>
    <contour>
      <point x="63" y="-376" type="qcurve"/>
      <point x="110" y="1" type="line"/>
      <point x="154" y="-28"/>
      <point x="396" y="-97"/>
      <point x="481" y="-97" type="qcurve"/>
      <point x="554" y="-97"/>
      <point x="716" y="-54"/>
      <point x="716" y="30" type="qcurve" smooth="yes"/>
      <point x="716" y="128" type="line"/>
      <point x="671" y="66"/>
      <point x="546" y="-12"/>
      <point x="410" y="-12" type="qcurve" smooth="yes"/>
      <point x="238" y="-12"/>
      <point x="20" y="242"/>
      <point x="20" y="442" type="qcurve" smooth="yes"/>
      <point x="20" y="474" type="line" smooth="yes"/>
      <point x="20" y="674"/>
      <point x="218" y="934"/>
      <point x="401" y="934" type="qcurve" smooth="yes"/>
      <point x="498" y="934"/>
      <point x="661" y="854"/>
      <point x="703" y="792" type="qcurve"/>
      <point x="707" y="792" type="line"/>
      <point x="707" y="914" type="line"/>
      <point x="1283" y="914" type="line"/>
      <point x="1283" y="160" type="line" smooth="yes"/>
      <point x="1283" y="-134"/>
      <point x="935" y="-456"/>
      <point x="630" y="-456" type="qcurve" smooth="yes"/>
      <point x="453" y="-456"/>
      <point x="161" y="-405"/>
    </contour>
    <contour>
      <point x="591" y="451" type="line" smooth="yes"/>
      <point x="591" y="404"/>
      <point x="620" y="344"/>
      <point x="651" y="344" type="qcurve" smooth="yes"/>
      <point x="672" y="344"/>
      <point x="701" y="376"/>
      <point x="707" y="396" type="qcurve"/>
      <point x="707" y="518" type="line"/>
      <point x="701" y="538"/>
      <point x="672" y="570"/>
      <point x="651" y="570" type="qcurve" smooth="yes"/>
      <point x="620" y="570"/>
      <point x="591" y="508"/>
      <point x="591" y="461" type="qcurve" smooth="yes"/>
    </contour>
  </outline>
</glyph>
<glyph name="i" format="2">
  <advance width="683"/>
  <unicode hex="0069"/>
  <anchor x="341.5" y="0" name="bottom"/>
  <anchor x="341.5" y="914" name="top"/>
  <anchor x="175" y="0" name="ogonek"/>
  <outline>
    <contour>
      <point x="45" y="0" type="line"/>
      <point x="45" y="914" type="line"/>
      <point x="638" y="914" type="line"/>
      <point x="638" y="0" type="line"/>
    </contour>
    <contour>
      <point x="32" y="1216" type="qcurve" smooth="yes"/>
      <point x="32" y="1330"/>
      <point x="194" y="1487"/>
      <point x="344" y="1487" type="qcurve" smooth="yes"/>
      <point x="493" y="1487"/>
      <point x="651" y="1333"/>
      <point x="651" y="1216" type="qcurve" smooth="yes"/>
      <point x="651" y="1103"/>
      <point x="488" y="941"/>
      <point x="339" y="941" type="qcurve" smooth="yes"/>
      <point x="190" y="941"/>
      <point x="32" y="1103"/>
    </contour>
  </outline>
</glyph>
<glyph name="j" format="2">
  <advance width="702"/>
  <unicode hex="006A"/>
  <anchor x="351.0" y="-436" name="bottom"/>
  <anchor x="351.0" y="914" name="top"/>
  <outline>
    <contour>
      <point x="-216" y="-419" type="qcurve"/>
      <point x="-229" y="-17" type="line"/>
      <point x="-208" y="-20"/>
      <point x="-139" y="-35"/>
      <point x="-68" y="-35" type="qcurve" smooth="yes"/>
      <point x="13" y="-35"/>
      <point x="66" y="35"/>
      <point x="66" y="153" type="qcurve" smooth="yes"/>
      <point x="66" y="914" type="line"/>
      <point x="654" y="914" type="line"/>
      <point x="654" y="57" type="line" smooth="yes"/>
      <point x="654" y="-202"/>
      <point x="359" y="-440"/>
      <point x="60" y="-440" type="qcurve" smooth="yes"/>
      <point x="-15" y="-440"/>
      <point x="-171" y="-426"/>
    </contour>
    <contour>
      <point x="51" y="1216" type="qcurve" smooth="yes"/>
      <point x="51" y="1330"/>
      <point x="213" y="1487"/>
      <point x="363" y="1487" type="qcurve" smooth="yes"/>
      <point x="512" y="1487"/>
      <point x="670" y="1333"/>
      <point x="670" y="1216" type="qcurve" smooth="yes"/>
      <point x="670" y="1103"/>
      <point x="507" y="941"/>
      <point x="358" y="941" type="qcurve" smooth="yes"/>
      <point x="209" y="941"/>
      <point x="51" y="1103"/>
    </contour>
  </outline>
</glyph>
<glyph name="k" format="2">
  <advance width="1470"/>
  <unicode hex="006B"/>
  <anchor x="716.0" y="0" name="bottom"/>
  <anchor x="716.0" y="914" name="top"/>
  <outline>
    <contour>
      <point x="45" y="0" type="line"/>
      <point x="45" y="1458" type="line"/>
      <point x="625" y="1458" type="line"/>
      <point x="625" y="711" type="line"/>
      <point x="780" y="914" type="line"/>
      <point x="1431" y="914" type="line"/>
      <point x="625" y="102" type="line"/>
      <point x="625" y="0" type="line"/>
    </contour>
    <contour>
      <point x="814" y="0" type="line"/>
      <point x="588" y="352" type="line"/>
      <point x="937" y="738" type="line"/>
      <point x="1489" y="0" type="line"/>
    </contour>
  </outline>
</glyph>
<glyph name="l" format="2">
  <advance width="677"/>
  <unicode hex="006C"/>
  <anchor x="338.5" y="0" name="bottom"/>
  <anchor x="338.5" y="728.0" name="center"/>
  <anchor x="339" y="1456" name="top"/>
  <anchor x="532" y="914" name="topright"/>
  <outline>
    <contour>
      <point x="45" y="0" type="line"/>
      <point x="45" y="1456" type="line"/>
      <point x="632" y="1456" type="line"/>
      <point x="632" y="0" type="line"/>
    </contour>
  </outline>
</glyph>
<glyph name="m" format="2">
  <advance width="1989"/>
  <unicode hex="006D"/>
  <anchor x="994.5" y="0" name="bottom"/>
  <anchor x="994.5" y="914" name="top"/>
  <outline>
    <contour>
      <point x="45" y="-1" type="line"/>
      <point x="45" y="913" type="line"/>
      <point x="617" y="913" type="line"/>
      <point x="617" y="779" type="line"/>
      <point x="621" y="779" type="line"/>
      <point x="666" y="854"/>
      <point x="832" y="943"/>
      <point x="950" y="943" type="qcurve" smooth="yes"/>
      <point x="1057" y="943"/>
      <point x="1215" y="858"/>
      <point x="1244" y="777" type="qcurve"/>
      <point x="1247" y="777" type="line"/>
      <point x="1305" y="853"/>
      <point x="1499" y="945"/>
      <point x="1620" y="945" type="qcurve" smooth="yes"/>
      <point x="1770" y="945"/>
      <point x="1949" y="790"/>
      <point x="1949" y="611" type="qcurve" smooth="yes"/>
      <point x="1949" y="-1" type="line"/>
      <point x="1367" y="-1" type="line"/>
      <point x="1367" y="488" type="line" smooth="yes"/>
      <point x="1367" y="513"/>
      <point x="1349" y="536"/>
      <point x="1332" y="536" type="qcurve" smooth="yes"/>
      <point x="1316" y="536"/>
      <point x="1292" y="509"/>
      <point x="1287" y="490" type="qcurve"/>
      <point x="1287" y="-1" type="line"/>
      <point x="705" y="-1" type="line"/>
      <point x="705" y="488" type="line" smooth="yes"/>
      <point x="705" y="513"/>
      <point x="686" y="536"/>
      <point x="668" y="536" type="qcurve" smooth="yes"/>
      <point x="652" y="536"/>
      <point x="629" y="508"/>
      <point x="625" y="489" type="qcurve"/>
      <point x="625" y="-1" type="line"/>
    </contour>
  </outline>
</glyph>
<glyph name="q" format="2">
  <advance width="1341"/>
  <unicode hex="0071"/>
  <anchor x="670.5" y="0" name="bottom"/>
  <anchor x="670.5" y="914" name="top"/>
  <outline>
    <contour>
      <point x="20" y="442" type="qcurve" smooth="yes"/>
      <point x="20" y="474" type="line" smooth="yes"/>
      <point x="20" y="674"/>
      <point x="235" y="934"/>
      <point x="416" y="934" type="qcurve" smooth="yes"/>
      <point x="542" y="934"/>
      <point x="703" y="859"/>
      <point x="739" y="810" type="qcurve"/>
      <point x="739" y="810" type="line"/>
      <point x="739" y="914" type="line"/>
      <point x="1296" y="914" type="line"/>
      <point x="1296" y="-418" type="line"/>
      <point x="733" y="-418" type="line"/>
      <point x="733" y="120" type="line"/>
      <point x="737" y="120" type="line"/>
      <point x="691" y="58"/>
      <point x="525" y="-20"/>
      <point x="416" y="-20" type="qcurve" smooth="yes"/>
      <point x="230" y="-20"/>
      <point x="20" y="242"/>
    </contour>
    <contour>
      <point x="603" y="451" type="line" smooth="yes"/>
      <point x="603" y="404"/>
      <point x="632" y="344"/>
      <point x="663" y="344" type="qcurve" smooth="yes"/>
      <point x="684" y="344"/>
      <point x="713" y="376"/>
      <point x="719" y="396" type="qcurve"/>
      <point x="719" y="518" type="line"/>
      <point x="713" y="538"/>
      <point x="684" y="570"/>
      <point x="663" y="570" type="qcurve" smooth="yes"/>
      <point x="632" y="570"/>
      <point x="603" y="508"/>
      <point x="603" y="461" type="qcurve" smooth="yes"/>
    </contour>
  </outline>
</glyph>
<glyph name="r" format="2">
  <advance width="1011"/>
  <unicode hex="0072"/>
  <anchor x="505.5" y="0" name="bottom"/>
  <anchor x="535" y="914" name="top"/>
  <outline>
    <contour>
      <point x="45" y="0" type="line"/>
      <point x="45" y="914" type="line"/>
      <point x="637" y="914" type="line"/>
      <point x="637" y="786" type="line"/>
      <point x="638" y="786" type="line"/>
      <point x="678" y="850"/>
      <point x="805" y="926"/>
      <point x="876" y="926" type="qcurve" smooth="yes"/>
      <point x="921" y="926"/>
      <point x="981" y="917"/>
      <point x="991" y="913" type="qcurve"/>
      <point x="991" y="516" type="line"/>
      <point x="971" y="527"/>
      <point x="908" y="536"/>
      <point x="869" y="536" type="qcurve" smooth="yes"/>
      <point x="810" y="536"/>
      <point x="680" y="465"/>
      <point x="642" y="403" type="qcurve"/>
      <point x="642" y="0" type="line"/>
    </contour>
  </outline>
</glyph>
<glyph name="s" format="2">
  <advance width="1213"/>
  <unicode hex="0073"/>
  <anchor x="606.5" y="0" name="bottom"/>
  <anchor x="606.5" y="914" name="top"/>
  <outline>
    <contour>
      <point x="20" y="312" type="line"/>
      <point x="514" y="304" type="line"/>
      <point x="514" y="287" type="line" smooth="yes"/>
      <point x="514" y="257"/>
      <point x="558" y="243"/>
      <point x="592" y="243" type="qcurve" smooth="yes"/>
      <point x="631" y="243"/>
      <point x="659" y="258"/>
      <point x="659" y="269" type="qcurve" smooth="yes"/>
      <point x="659" y="281"/>
      <point x="634" y="297"/>
      <point x="454" y="322" type="qcurve" smooth="yes"/>
      <point x="211" y="356"/>
      <point x="35" y="503"/>
      <point x="35" y="634" type="qcurve" smooth="yes"/>
      <point x="35" y="787"/>
      <point x="332" y="952"/>
      <point x="608" y="952" type="qcurve" smooth="yes"/>
      <point x="874" y="952"/>
      <point x="1161" y="783"/>
      <point x="1161" y="627" type="qcurve" smooth="yes"/>
      <point x="1161" y="604" type="line"/>
      <point x="669" y="604" type="line"/>
      <point x="669" y="626" type="line" smooth="yes"/>
      <point x="669" y="645"/>
      <point x="630" y="663"/>
      <point x="591" y="663" type="qcurve" smooth="yes"/>
      <point x="555" y="663"/>
      <point x="527" y="651"/>
      <point x="527" y="637" type="qcurve" smooth="yes"/>
      <point x="527" y="622"/>
      <point x="573" y="607"/>
      <point x="744" y="589" type="qcurve" smooth="yes"/>
      <point x="976" y="565"/>
      <point x="1193" y="426"/>
      <point x="1193" y="290" type="qcurve" smooth="yes"/>
      <point x="1193" y="137"/>
      <point x="890" y="-27"/>
      <point x="608" y="-27" type="qcurve" smooth="yes"/>
      <point x="336" y="-27"/>
      <point x="32" y="141"/>
      <point x="21" y="297" type="qcurve" smooth="yes"/>
    </contour>
  </outline>
</glyph>
<glyph name="t" format="2">
  <advance width="923"/>
  <unicode hex="0074"/>
  <anchor x="563" y="0" name="bottom"/>
  <anchor x="462" y="460.0" name="center"/>
  <anchor x="462" y="1172" name="top"/>
  <anchor x="686" y="914" name="topright"/>
  <outline>
    <contour>
      <point x="20" y="520" type="line"/>
      <point x="20" y="914" type="line"/>
      <point x="886" y="914" type="line"/>
      <point x="886" y="520" type="line"/>
    </contour>
    <contour>
      <point x="144" y="324" type="qcurve" smooth="yes"/>
      <point x="144" y="872" type="line"/>
      <point x="164" y="883" type="line"/>
      <point x="164" y="1172" type="line"/>
      <point x="710" y="1172" type="line"/>
      <point x="710" y="502" type="line" smooth="yes"/>
      <point x="710" y="411"/>
      <point x="750" y="362"/>
      <point x="798" y="362" type="qcurve" smooth="yes"/>
      <point x="829" y="362"/>
      <point x="879" y="367"/>
      <point x="903" y="374" type="qcurve"/>
      <point x="903" y="14" type="line"/>
      <point x="863" y="4"/>
      <point x="683" y="-20"/>
      <point x="534" y="-20" type="qcurve"/>
      <point x="339" y="-20"/>
      <point x="144" y="153"/>
    </contour>
  </outline>
</glyph>
<glyph name="u" format="2">
  <advance width="1322"/>
  <unicode hex="0075"/>
  <anchor x="661.0" y="0" name="bottom"/>
  <anchor x="828" y="0" name="ogonek"/>
  <anchor x="661.0" y="914" name="top"/>
  <anchor x="1082" y="914" name="topright"/>
  <outline>
    <contour>
      <point x="40" y="308" type="qcurve" smooth="yes"/>
      <point x="40" y="914" type="line"/>
      <point x="620" y="914" type="line"/>
      <point x="620" y="418" type="line" smooth="yes"/>
      <point x="620" y="393"/>
      <point x="640" y="368"/>
      <point x="656" y="368" type="qcurve" smooth="yes"/>
      <point x="672" y="368"/>
      <point x="695" y="394"/>
      <point x="702" y="415" type="qcurve"/>
      <point x="702" y="914" type="line"/>
      <point x="1282" y="914" type="line"/>
      <point x="1282" y="0" type="line"/>
      <point x="704" y="0" type="line"/>
      <point x="704" y="120" type="line"/>
      <point x="703" y="120" type="line"/>
      <point x="678" y="59"/>
      <point x="521" y="-29"/>
      <point x="387" y="-29" type="qcurve" smooth="yes"/>
      <point x="235" y="-29"/>
      <point x="40" y="131"/>
    </contour>
  </outline>
</glyph>
<glyph name="x" format="2">
  <advance width="1197"/>
  <unicode hex="0078"/>
  <outline>
    <contour>
      <point x="-16" y="0" type="line"/>
      <point x="355" y="584" type="line"/>
      <point x="519" y="584" type="line"/>
      <point x="729" y="914" type="line"/>
      <point x="1204" y="914" type="line"/>
      <point x="845" y="333" type="line"/>
      <point x="643" y="333" type="line"/>
      <point x="459" y="0" type="line"/>
    </contour>
    <contour>
      <point x="-6" y="914" type="line"/>
      <point x="584" y="914" type="line"/>
      <point x="791" y="557" type="line"/>
      <point x="849" y="557" type="line"/>
      <point x="1213" y="0" type="line"/>
      <point x="623" y="0" type="line"/>
      <point x="398" y="377" type="line"/>
      <point x="345" y="377" type="line"/>
    </contour>
  </outline>
</glyph>
<glyph name="y" format="2">
  <advance width="1265"/>
  <unicode hex="0079"/>
  <anchor x="1107" y="0" name="bottom"/>
  <anchor x="652" y="914" name="top"/>
  <outline>
    <contour>
      <point x="6" y="-408" type="qcurve"/>
      <point x="6" y="-63" type="line"/>
      <point x="52" y="-68"/>
      <point x="138" y="-75"/>
      <point x="176" y="-75" type="qcurve" smooth="yes"/>
      <point x="251" y="-75"/>
      <point x="355" y="-42"/>
      <point x="370" y="0" type="qcurve"/>
      <point x="370" y="1" type="line"/>
      <point x="-10" y="914" type="line"/>
      <point x="538" y="914" type="line"/>
      <point x="629" y="610" type="line" smooth="yes"/>
      <point x="634" y="594"/>
      <point x="642" y="569"/>
      <point x="647" y="553" type="qcurve"/>
      <point x="651" y="553" type="line"/>
      <point x="656" y="569"/>
      <point x="664" y="594"/>
      <point x="670" y="611" type="qcurve" smooth="yes"/>
      <point x="774" y="914" type="line"/>
      <point x="1275" y="914" type="line"/>
      <point x="955" y="96" type="line" smooth="yes"/>
      <point x="827" y="-230"/>
      <point x="537" y="-436"/>
      <point x="309" y="-436" type="qcurve" smooth="yes"/>
      <point x="193" y="-436"/>
      <point x="59" y="-424"/>
    </contour>
  </outline>
</glyph>
<glyph name="z" format="2">
  <advance width="1141"/>
  <unicode hex="007A"/>
  <anchor x="570.5" y="0" name="bottom"/>
  <anchor x="570.5" y="914" name="top"/>
  <outline>
    <contour>
      <point x="40" y="0" type="line"/>
      <point x="40" y="285" type="line"/>
      <point x="345" y="520" type="line"/>
      <point x="59" y="520" type="line"/>
      <point x="59" y="914" type="line"/>
      <point x="1063" y="914" type="line"/>
      <point x="1063" y="609" type="line"/>
      <point x="759" y="374" type="line"/>
      <point x="1101" y="374" type="line"/>
      <point x="1101" y="0" type="line"/>
    </contour>
  </outline>
</glyph>
<glyph name="dieresis" format="2">
  <advance width="1024"/>
  <unicode hex="00A8"/>
  <outline>
    <contour>
      <point x="52.0" y="1204.0" type="qcurve" smooth="yes"/>
      <point x="52.0" y="1292.0"/>
      <point x="161.0" y="1413.0"/>
      <point x="266.0" y="1413.0" type="qcurve" smooth="yes"/>
      <point x="370.0" y="1413.0"/>
      <point x="480.0" y="1292.0"/>
      <point x="480.0" y="1204.0" type="qcurve" smooth="yes"/>
      <point x="480.0" y="1121.0"/>
      <point x="370.0" y="1002.0"/>
      <point x="266.0" y="1002.0" type="qcurve" smooth="yes"/>
      <point x="161.0" y="1002.0"/>
      <point x="52.0" y="1121.0"/>
    </contour>
    <contour>
      <point x="544.0" y="1202.0" type="qcurve" smooth="yes"/>
      <point x="544.0" y="1290.0"/>
      <point x="651.0" y="1411.0"/>
      <point x="757.0" y="1411.0" type="qcurve" smooth="yes"/>
      <point x="859.0" y="1411.0"/>
      <point x="971.0" y="1290.0"/>
      <point x="971.0" y="1202.0" type="qcurve" smooth="yes"/>
      <point x="971.0" y="1119.0"/>
      <point x="859.0" y="1000.0"/>
      <point x="757.0" y="1000.0" type="qcurve" smooth="yes"/>
      <point x="651.0" y="1000.0"/>
      <point x="544.0" y="1119.0"/>
    </contour>
  </outline>
</glyph>
<glyph name="registered" format="2">
	<unicode hex="00AE"/>
	<advance width="2054"/>
	<outline>
		<contour>
			<point x="38" y="687" type="qcurve" smooth="yes"/>
			<point x="38" y="1050"/>
			<point x="574" y="1519"/>
			<point x="989" y="1519" type="qcurve" smooth="yes"/>
			<point x="1437" y="1519"/>
			<point x="1980" y="1050"/>
			<point x="1980" y="687" type="qcurve" smooth="yes"/>
			<point x="1980" y="323"/>
			<point x="1437" y="-147"/>
			<point x="989" y="-147" type="qcurve" smooth="yes"/>
			<point x="574" y="-147"/>
			<point x="38" y="323"/>
		</contour>
		<contour>
			<point x="246" y="687" type="qcurve" smooth="yes"/>
			<point x="246" y="377"/>
			<point x="665" y="44"/>
			<point x="990" y="44" type="qcurve" smooth="yes"/>
			<point x="1332" y="44"/>
			<point x="1773" y="377"/>
			<point x="1773" y="687" type="qcurve" smooth="yes"/>
			<point x="1773" y="995"/>
			<point x="1332" y="1327"/>
			<point x="990" y="1327" type="qcurve" smooth="yes"/>
			<point x="665" y="1327"/>
			<point x="246" y="995"/>
		</contour>
		<contour>
			<point x="981" y="521" type="line"/>
			<point x="951" y="521" type="line"/>
			<point x="951" y="225" type="line"/>
			<point x="499" y="225" type="line"/>
			<point x="499" y="1158" type="line"/>
			<point x="1060" y="1158" type="line" smooth="yes"/>
			<point x="1303" y="1158"/>
			<point x="1565" y="993"/>
			<point x="1565" y="839" type="qcurve" smooth="yes"/>
			<point x="1565" y="717"/>
			<point x="1473" y="564"/>
			<point x="1368" y="545" type="qcurve"/>
			<point x="1411" y="516"/>
			<point x="1459" y="474"/>
			<point x="1480" y="445" type="qcurve" smooth="yes"/>
			<point x="1604" y="281" type="line"/>
			<point x="1604" y="225" type="line"/>
			<point x="1190" y="225" type="line"/>
		</contour>
		<contour>
			<point x="1036" y="885" type="qcurve" smooth="yes"/>
			<point x="947" y="885" type="line"/>
			<point x="947" y="783" type="line"/>
			<point x="1044" y="783" type="line" smooth="yes"/>
			<point x="1069" y="783"/>
			<point x="1101" y="804"/>
			<point x="1101" y="829" type="qcurve" smooth="yes"/>
			<point x="1101" y="860"/>
			<point x="1076" y="885"/>
		</contour>
	</outline>
</glyph>
<glyph name="twosuperior" format="2">
	<unicode hex="00B2"/>
	<advance width="785"/>
	<outline>
		<contour>
			<point x="18" y="683" type="line"/>
			<point x="18" y="905" type="line"/>
			<point x="321" y="1138" type="line" smooth="yes"/>
			<point x="364" y="1171"/>
			<point x="387" y="1205"/>
			<point x="387" y="1220" type="qcurve" smooth="yes"/>
			<point x="387" y="1231"/>
			<point x="375" y="1244"/>
			<point x="361" y="1244" type="qcurve" smooth="yes"/>
			<point x="339" y="1244"/>
			<point x="318" y="1208"/>
			<point x="318" y="1152" type="qcurve"/>
			<point x="10" y="1152" type="line"/>
			<point x="7" y="1335"/>
			<point x="190" y="1487"/>
			<point x="393" y="1487" type="qcurve" smooth="yes"/>
			<point x="603" y="1487"/>
			<point x="758" y="1357"/>
			<point x="758" y="1257" type="qcurve" smooth="yes"/>
			<point x="758" y="1176"/>
			<point x="656" y="1035"/>
			<point x="597" y="990" type="qcurve" smooth="yes"/>
			<point x="540" y="945" type="line"/>
			<point x="769" y="945" type="line"/>
			<point x="769" y="683" type="line"/>
		</contour>
	</outline>
</glyph>
<glyph name="threesuperior" format="2">
  <advance width="777"/>
  <unicode hex="00B3"/>
  <outline>
    <contour>
      <point x="23" y="954" type="qcurve"/>
      <point x="351" y="954" type="line"/>
      <point x="351" y="925"/>
      <point x="370" y="893"/>
      <point x="388" y="893" type="qcurve" smooth="yes"/>
      <point x="408" y="893"/>
      <point x="421" y="920"/>
      <point x="421" y="939" type="qcurve" smooth="yes"/>
      <point x="421" y="964"/>
      <point x="386" y="992"/>
      <point x="330" y="992" type="qcurve" smooth="yes"/>
      <point x="233" y="992" type="line"/>
      <point x="233" y="1160" type="line"/>
      <point x="309" y="1160" type="line" smooth="yes"/>
      <point x="361" y="1160"/>
      <point x="399" y="1189"/>
      <point x="399" y="1220" type="qcurve" smooth="yes"/>
      <point x="399" y="1238"/>
      <point x="388" y="1251"/>
      <point x="372" y="1251" type="qcurve" smooth="yes"/>
      <point x="359" y="1251"/>
      <point x="344" y="1233"/>
      <point x="344" y="1199" type="qcurve"/>
      <point x="46" y="1199" type="line"/>
      <point x="46" y="1358"/>
      <point x="262" y="1487"/>
      <point x="402" y="1487" type="qcurve" smooth="yes"/>
      <point x="556" y="1487"/>
      <point x="740" y="1378"/>
      <point x="740" y="1266" type="qcurve" smooth="yes"/>
      <point x="740" y="1203"/>
      <point x="654" y="1108"/>
      <point x="592" y="1085" type="qcurve"/>
      <point x="673" y="1065"/>
      <point x="761" y="976"/>
      <point x="761" y="908" type="qcurve" smooth="yes"/>
      <point x="761" y="794"/>
      <point x="581" y="659"/>
      <point x="414" y="659" type="qcurve" smooth="yes"/>
      <point x="226" y="659"/>
      <point x="23" y="812"/>
    </contour>
  </outline>
</glyph>
<glyph name="acute" format="2">
	<unicode hex="00B4"/>
	<advance width="1024"/>
	<outline>
		<contour>
			<point x="230" y="1119" type="line"/>
			<point x="439" y="1485" type="line"/>
			<point x="913" y="1381" type="line"/>
			<point x="655" y="1011" type="line"/>
		</contour>
	</outline>
</glyph>
<glyph name="micro" format="2">
  <advance width="1475"/>
  <unicode hex="00B5"/>
  <outline>
    <contour>
      <point x="245" y="914" type="line"/>
      <point x="825" y="914" type="line"/>
      <point x="739" y="473" type="line" smooth="yes"/>
      <point x="729" y="420"/>
      <point x="738" y="382"/>
      <point x="761" y="382" type="qcurve" smooth="yes"/>
      <point x="773" y="382"/>
      <point x="801" y="400"/>
      <point x="811" y="416" type="qcurve"/>
      <point x="908" y="914" type="line"/>
      <point x="1486" y="914" type="line"/>
      <point x="1307" y="0" type="line"/>
      <point x="745" y="0" type="line"/>
      <point x="755" y="52" type="line"/>
      <point x="754" y="52" type="line"/>
      <point x="732" y="16"/>
      <point x="682" y="-6"/>
      <point x="661" y="-6" type="qcurve" smooth="yes"/>
      <point x="651" y="-6"/>
      <point x="634" y="3"/>
      <point x="629" y="10" type="qcurve"/>
      <point x="547" y="-416" type="line"/>
      <point x="-12" y="-416" type="line"/>
    </contour>
  </outline>
</glyph>
<glyph name="periodcentered" format="2">
	<unicode hex="00B7"/>
	<advance width="682"/>
	<outline>
		<contour>
			<point x="38" y="740" type="qcurve" smooth="yes"/>
			<point x="38" y="857"/>
			<point x="195" y="1016"/>
			<point x="341" y="1016" type="qcurve" smooth="yes"/>
			<point x="487" y="1016"/>
			<point x="644" y="857"/>
			<point x="644" y="740" type="qcurve" smooth="yes"/>
			<point x="644" y="621"/>
			<point x="487" y="462"/>
			<point x="341" y="462" type="qcurve" smooth="yes"/>
			<point x="195" y="462"/>
			<point x="38" y="624"/>
		</contour>
	</outline>
</glyph>
<glyph name="cedilla" format="2">
  <advance width="1024"/>
  <unicode hex="00B8"/>
  <outline>
    <contour>
      <point x="404.0" y="-7.0" type="line"/>
      <point x="610.0" y="-7.0" type="line"/>
      <point x="580.0" y="-106.0" type="line"/>
      <point x="659.0" y="-117.0"/>
      <point x="767.0" y="-196.0"/>
      <point x="767.0" y="-287.0" type="qcurve" smooth="yes"/>
      <point x="767.0" y="-385.0"/>
      <point x="600.0" y="-502.0"/>
      <point x="316.0" y="-502.0" type="qcurve"/>
      <point x="306.0" y="-350.0" type="line"/>
      <point x="384.0" y="-350.0"/>
      <point x="450.0" y="-322.0"/>
      <point x="450.0" y="-291.0" type="qcurve"/>
      <point x="450.0" y="-262.0"/>
      <point x="403.0" y="-241.0"/>
      <point x="344.0" y="-236.0" type="qcurve"/>
    </contour>
  </outline>
</glyph>
<glyph name="onesuperior" format="2">
	<unicode hex="00B9"/>
	<advance width="751"/>
	<outline>
		<contour>
			<point x="53" y="1043" type="line"/>
			<point x="53" y="1390" type="line"/>
			<point x="387" y="1486" type="line"/>
			<point x="601" y="1486" type="line"/>
			<point x="601" y="697" type="line"/>
			<point x="239" y="697" type="line"/>
			<point x="239" y="1088" type="line"/>
		</contour>
	</outline>
</glyph>
<glyph name="guillemotright" format="2">
	<unicode hex="00BB"/>
	<advance width="1286"/>
	<outline>
		<contour>
			<point x="10" y="58" type="line"/>
			<point x="299" y="490" type="line"/>
			<point x="10" y="921" type="line"/>
			<point x="410" y="921" type="line"/>
			<point x="712" y="520" type="line"/>
			<point x="712" y="456" type="line"/>
			<point x="410" y="58" type="line"/>
		</contour>
		<contour>
			<point x="535" y="58" type="line"/>
			<point x="824" y="490" type="line"/>
			<point x="535" y="921" type="line"/>
			<point x="967" y="921" type="line"/>
			<point x="1268" y="520" type="line"/>
			<point x="1268" y="456" type="line"/>
			<point x="967" y="58" type="line"/>
		</contour>
	</outline>
	<guideline x="0" y="98" angle="0" identifier="MTEldNnfdj"/>
	<guideline x="0" y="443" angle="0" identifier="G9bQni2n1K"/>
</glyph>
<glyph name="questiondown" format="2">
	<unicode hex="00BF"/>
	<advance width="1277"/>
	<outline>
		<contour>
			<point x="991" y="901" type="qcurve" smooth="yes"/>
			<point x="991" y="791"/>
			<point x="831" y="632"/>
			<point x="679" y="632" type="qcurve" smooth="yes"/>
			<point x="527" y="632"/>
			<point x="367" y="791"/>
			<point x="367" y="901" type="qcurve" smooth="yes"/>
			<point x="367" y="1011"/>
			<point x="527" y="1170"/>
			<point x="679" y="1170" type="qcurve" smooth="yes"/>
			<point x="827" y="1170"/>
			<point x="991" y="1011"/>
		</contour>
		<contour>
			<point x="1252" y="182" type="line"/>
			<point x="1252" y="70" type="line" smooth="yes"/>
			<point x="1252" y="-101"/>
			<point x="953" y="-328"/>
			<point x="664" y="-328" type="qcurve" smooth="yes"/>
			<point x="343" y="-328"/>
			<point x="21" y="-147"/>
			<point x="21" y="10" type="qcurve" smooth="yes"/>
			<point x="21" y="161"/>
			<point x="138" y="299"/>
			<point x="230" y="375" type="qcurve" smooth="yes"/>
			<point x="320" y="448"/>
			<point x="400" y="520"/>
			<point x="400" y="567" type="qcurve" smooth="yes"/>
			<point x="400" y="609" type="line"/>
			<point x="957" y="609" type="line"/>
			<point x="957" y="544" type="line" smooth="yes"/>
			<point x="957" y="453"/>
			<point x="866" y="324"/>
			<point x="743" y="232" type="qcurve" smooth="yes"/>
			<point x="656" y="168"/>
			<point x="630" y="139"/>
			<point x="630" y="113" type="qcurve" smooth="yes"/>
			<point x="630" y="82"/>
			<point x="657" y="63"/>
			<point x="695" y="63" type="qcurve" smooth="yes"/>
			<point x="733" y="63"/>
			<point x="764" y="103"/>
			<point x="764" y="160" type="qcurve" smooth="yes"/>
			<point x="764" y="182" type="line"/>
		</contour>
	</outline>
	<guideline x="0" y="-181" angle="0" identifier="apukwP5ffL"/>
	<guideline x="0" y="921" angle="0" identifier="5ZPZZL8Rim"/>
</glyph>
<glyph name="AE" format="2">
  <advance width="2111"/>
  <unicode hex="00C6"/>
  <anchor x="1242" y="1456" name="top"/>
  <outline>
    <contour>
      <point x="297" y="158" type="line"/>
      <point x="397" y="528" type="line"/>
      <point x="1030" y="528" type="line"/>
      <point x="1030" y="158" type="line"/>
    </contour>
    <contour>
      <point x="-20" y="0" type="line"/>
      <point x="861" y="1456" type="line"/>
      <point x="2071" y="1456" type="line"/>
      <point x="2071" y="990" type="line"/>
      <point x="1495" y="990" type="line"/>
      <point x="1495" y="922" type="line"/>
      <point x="1993" y="922" type="line"/>
      <point x="1993" y="526" type="line"/>
      <point x="1495" y="526" type="line"/>
      <point x="1495" y="446" type="line"/>
      <point x="2091" y="446" type="line"/>
      <point x="2091" y="0" type="line"/>
      <point x="925" y="0" type="line"/>
      <point x="925" y="738" type="line"/>
      <point x="551" y="0" type="line"/>
    </contour>
  </outline>
</glyph>
<glyph name="germandbls" format="2">
	<unicode hex="00DF"/>
	<advance width="1818"/>
	<outline>
		<contour>
			<point name="hr00" x="605" y="1044" type="qcurve"/>
			<point x="605" y="0" type="line"/>
			<point x="18" y="0" type="line"/>
			<point x="18" y="1044" type="line" smooth="yes"/>
			<point x="18" y="1280"/>
			<point x="427" y="1534"/>
			<point x="808" y="1534" type="qcurve" smooth="yes"/>
			<point x="1148" y="1534"/>
			<point x="1514" y="1361"/>
			<point x="1514" y="1201" type="qcurve" smooth="yes"/>
			<point x="1514" y="1142"/>
			<point x="1458" y="1018"/>
			<point x="1406" y="958" type="qcurve" smooth="yes"/>
			<point x="1375" y="922"/>
			<point x="1345" y="865"/>
			<point x="1345" y="842" type="qcurve" smooth="yes"/>
			<point x="1345" y="807"/>
			<point x="1441" y="722"/>
			<point x="1550" y="648" type="qcurve" smooth="yes"/>
			<point x="1694" y="550"/>
			<point x="1799" y="397"/>
			<point x="1799" y="290" type="qcurve" smooth="yes"/>
			<point x="1799" y="154"/>
			<point x="1506" y="-27"/>
			<point x="1214" y="-27" type="qcurve" smooth="yes"/>
			<point x="922" y="-27"/>
			<point x="637" y="159"/>
			<point x="627" y="307" type="qcurve"/>
			<point x="626" y="322" type="line"/>
			<point x="1120" y="314" type="line"/>
			<point x="1120" y="287" type="line" smooth="yes"/>
			<point x="1120" y="257"/>
			<point x="1164" y="243"/>
			<point x="1198" y="243" type="qcurve" smooth="yes"/>
			<point x="1237" y="243"/>
			<point x="1265" y="258"/>
			<point x="1265" y="269" type="qcurve" smooth="yes"/>
			<point x="1265" y="292"/>
			<point x="1186" y="345"/>
			<point x="1070" y="412" type="qcurve" smooth="yes"/>
			<point x="933" y="491"/>
			<point x="795" y="649"/>
			<point x="795" y="736" type="qcurve" smooth="yes"/>
			<point x="795" y="795"/>
			<point x="860" y="927"/>
			<point x="924" y="1001" type="qcurve" smooth="yes"/>
			<point x="952" y="1033"/>
			<point x="982" y="1100"/>
			<point x="982" y="1130" type="qcurve" smooth="yes"/>
			<point x="982" y="1184"/>
			<point x="890" y="1242"/>
			<point x="804" y="1242" type="qcurve" smooth="yes"/>
			<point x="708" y="1242"/>
			<point x="605" y="1139"/>
		</contour>
	</outline>
</glyph>
<glyph name="ae" format="2">
  <advance width="1938"/>
  <unicode hex="00E6"/>
  <anchor x="1009.0" y="914" name="top"/>
  <outline>
    <contour>
      <point x="570" y="313" type="qcurve" smooth="yes"/>
      <point x="570" y="286"/>
      <point x="594" y="260"/>
      <point x="616" y="260" type="qcurve" smooth="yes"/>
      <point x="640" y="260"/>
      <point x="680" y="306"/>
      <point x="680" y="334" type="qcurve" smooth="yes"/>
      <point x="680" y="377" type="line"/>
      <point x="635" y="377" type="line" smooth="yes"/>
      <point x="602" y="377"/>
      <point x="570" y="343"/>
    </contour>
    <contour>
      <point x="0" y="267" type="qcurve" smooth="yes"/>
      <point x="0" y="406"/>
      <point x="232" y="576"/>
      <point x="428" y="576" type="qcurve" smooth="yes"/>
      <point x="680" y="576" type="line"/>
      <point x="680" y="598" type="line" smooth="yes"/>
      <point x="680" y="628"/>
      <point x="661" y="661"/>
      <point x="639" y="661" type="qcurve" smooth="yes"/>
      <point x="618" y="661"/>
      <point x="595" y="632"/>
      <point x="595" y="607" type="qcurve" smooth="yes"/>
      <point x="595" y="589" type="line"/>
      <point x="78" y="592" type="line"/>
      <point x="78" y="605" type="line" smooth="yes"/>
      <point x="78" y="766"/>
      <point x="404" y="942"/>
      <point x="689" y="942" type="qcurve" smooth="yes"/>
      <point x="786" y="942"/>
      <point x="947" y="923"/>
      <point x="1009" y="885" type="qcurve"/>
      <point x="1075" y="927"/>
      <point x="1232" y="950"/>
      <point x="1321" y="950" type="qcurve" smooth="yes"/>
      <point x="1606" y="950"/>
      <point x="1917" y="696"/>
      <point x="1917" y="487" type="qcurve" smooth="yes"/>
      <point x="1917" y="425" type="line"/>
      <point x="1220" y="425" type="line"/>
      <point x="1220" y="506" type="line"/>
      <point x="1364" y="506" type="line"/>
      <point x="1364" y="516" type="line" smooth="yes"/>
      <point x="1364" y="547"/>
      <point x="1342" y="581"/>
      <point x="1314" y="581" type="qcurve" smooth="yes"/>
      <point x="1287" y="581"/>
      <point x="1259" y="544"/>
      <point x="1259" y="494" type="qcurve" smooth="yes"/>
      <point x="1259" y="443" type="line" smooth="yes"/>
      <point x="1259" y="386"/>
      <point x="1293" y="345"/>
      <point x="1325" y="345" type="qcurve"/>
      <point x="1359" y="345"/>
      <point x="1394" y="374"/>
      <point x="1403" y="399" type="qcurve"/>
      <point x="1914" y="334" type="line"/>
      <point x="1860" y="147"/>
      <point x="1589" y="-27"/>
      <point x="1328" y="-27" type="qcurve" smooth="yes"/>
      <point x="1180" y="-27"/>
      <point x="945" y="32"/>
      <point x="863" y="88" type="qcurve"/>
      <point x="771" y="42"/>
      <point x="543" y="-13"/>
      <point x="410" y="-13" type="qcurve" smooth="yes"/>
      <point x="179" y="-13"/>
      <point x="0" y="128"/>
    </contour>
  </outline>
</glyph>
<glyph name="thorn" format="2">
	<unicode hex="00FE"/>
	<advance width="1307"/>
	<outline>
		<contour>
			<point x="36" y="-416" type="line"/>
			<point x="36" y="1536" type="line"/>
			<point x="605" y="1536" type="line"/>
			<point x="605" y="824" type="line"/>
			<point x="647" y="875"/>
			<point x="792" y="945"/>
			<point x="895" y="945" type="qcurve" smooth="yes"/>
			<point x="1075" y="945"/>
			<point x="1297" y="709"/>
			<point x="1297" y="479" type="qcurve" smooth="yes"/>
			<point x="1297" y="447" type="line" smooth="yes"/>
			<point x="1297" y="233"/>
			<point x="1063" y="-20"/>
			<point x="885" y="-20" type="qcurve" smooth="yes"/>
			<point x="781" y="-20"/>
			<point x="660" y="31"/>
			<point x="617" y="72" type="qcurve"/>
			<point x="613" y="72" type="line"/>
			<point x="613" y="-416" type="line"/>
		</contour>
		<contour>
			<point x="613" y="395" type="line"/>
			<point x="619" y="375"/>
			<point x="647" y="344"/>
			<point x="667" y="344" type="qcurve" smooth="yes"/>
			<point x="696" y="344"/>
			<point x="727" y="388"/>
			<point x="727" y="422" type="qcurve" smooth="yes"/>
			<point x="727" y="495" type="line" smooth="yes"/>
			<point x="727" y="535"/>
			<point x="695" y="570"/>
			<point x="671" y="570" type="qcurve" smooth="yes"/>
			<point x="646" y="570"/>
			<point x="617" y="540"/>
			<point x="613" y="519" type="qcurve"/>
		</contour>
	</outline>
</glyph>
<glyph name="oe" format="2">
	<unicode hex="0153"/>
	<advance width="1962"/>
	<outline>
		<contour>
			<point x="589" y="501" type="qcurve" smooth="yes"/>
			<point x="589" y="426" type="line" smooth="yes"/>
			<point x="589" y="392"/>
			<point x="618" y="350"/>
			<point x="647" y="350" type="qcurve" smooth="yes"/>
			<point x="676" y="350"/>
			<point x="705" y="392"/>
			<point x="705" y="426" type="qcurve" smooth="yes"/>
			<point x="705" y="501" type="line" smooth="yes"/>
			<point x="705" y="531"/>
			<point x="676" y="569"/>
			<point x="647" y="569" type="qcurve" smooth="yes"/>
			<point x="618" y="569"/>
			<point x="589" y="531"/>
		</contour>
		<contour>
			<point x="993" y="870" type="qcurve"/>
			<point x="1065" y="919"/>
			<point x="1243" y="950"/>
			<point x="1345" y="950" type="qcurve" smooth="yes"/>
			<point x="1630" y="950"/>
			<point x="1941" y="696"/>
			<point x="1941" y="487" type="qcurve" smooth="yes"/>
			<point x="1941" y="425" type="line"/>
			<point x="1044" y="425" type="line"/>
			<point x="1044" y="506" type="line"/>
			<point x="1388" y="506" type="line"/>
			<point x="1388" y="516" type="line" smooth="yes"/>
			<point x="1388" y="547"/>
			<point x="1366" y="581"/>
			<point x="1338" y="581" type="qcurve" smooth="yes"/>
			<point x="1311" y="581"/>
			<point x="1283" y="544"/>
			<point x="1283" y="494" type="qcurve" smooth="yes"/>
			<point x="1283" y="443" type="line" smooth="yes"/>
			<point x="1283" y="386"/>
			<point x="1317" y="345"/>
			<point x="1349" y="345" type="qcurve"/>
			<point x="1383" y="345"/>
			<point x="1418" y="374"/>
			<point x="1427" y="399" type="qcurve"/>
			<point x="1938" y="334" type="line"/>
			<point x="1884" y="147"/>
			<point x="1613" y="-27"/>
			<point x="1352" y="-27" type="qcurve" smooth="yes"/>
			<point x="1246" y="-27"/>
			<point x="1063" y="4"/>
			<point x="990" y="53" type="qcurve"/>
			<point x="920" y="4"/>
			<point x="749" y="-27"/>
			<point x="651" y="-27" type="qcurve" smooth="yes"/>
			<point x="359" y="-27"/>
			<point x="10" y="233"/>
			<point x="10" y="445" type="qcurve" smooth="yes"/>
			<point x="10" y="478" type="line" smooth="yes"/>
			<point x="10" y="689"/>
			<point x="360" y="952"/>
			<point x="651" y="952" type="qcurve" smooth="yes"/>
			<point x="750" y="952"/>
			<point x="923" y="920"/>
		</contour>
	</outline>
</glyph>
<glyph name="Schwa" format="2">
  <advance width="1347"/>
  <unicode hex="018F"/>
  <outline>
    <contour>
      <point x="12" y="1072" type="line"/>
      <point x="109" y="1278"/>
      <point x="417" y="1459"/>
      <point x="601" y="1459" type="qcurve" smooth="yes"/>
      <point x="949" y="1459"/>
      <point x="1323" y="1096"/>
      <point x="1323" y="758" type="qcurve" smooth="yes"/>
      <point x="1323" y="378"/>
      <point x="961" y="-30"/>
      <point x="625" y="-30" type="qcurve" smooth="yes"/>
      <point x="345" y="-30"/>
      <point x="44" y="273"/>
      <point x="44" y="555" type="qcurve" smooth="yes"/>
      <point x="44" y="818" type="line"/>
      <point x="926" y="818" type="line"/>
      <point x="926" y="522" type="line"/>
      <point x="660" y="530" type="line"/>
      <point x="599" y="524" type="line"/>
      <point x="599" y="391" type="line" smooth="yes"/>
      <point x="599" y="320"/>
      <point x="624" y="267"/>
      <point x="657" y="267" type="qcurve" smooth="yes"/>
      <point x="696" y="267"/>
      <point x="724" y="461"/>
      <point x="723" y="720" type="qcurve" smooth="yes"/>
      <point x="723" y="973"/>
      <point x="688" y="1162"/>
      <point x="646" y="1162" type="qcurve" smooth="yes"/>
      <point x="616" y="1162"/>
      <point x="573" y="1042"/>
      <point x="539" y="881" type="qcurve"/>
    </contour>
  </outline>
</glyph>
<glyph name="florin" format="2">
	<unicode hex="0192"/>
	<advance width="931"/>
	<outline>
		<contour>
			<point x="859" y="861" type="line"/>
			<point x="859" y="467" type="line"/>
			<point x="701" y="467" type="line"/>
			<point x="701" y="111" type="line"/>
			<point x="701" y="-174"/>
			<point x="403" y="-439"/>
			<point x="160" y="-439" type="qcurve" smooth="yes"/>
			<point x="112" y="-439"/>
			<point x="10" y="-430"/>
			<point x="-44" y="-420" type="qcurve"/>
			<point x="-36" y="-27" type="line"/>
			<point x="-12" y="-35"/>
			<point x="28" y="-44"/>
			<point x="45" y="-44" type="qcurve" smooth="yes"/>
			<point x="89" y="-44"/>
			<point x="129" y="29"/>
			<point x="129" y="111" type="qcurve" smooth="yes"/>
			<point x="129" y="467" type="line"/>
			<point x="4" y="467" type="line"/>
			<point x="4" y="861" type="line"/>
			<point x="129" y="861" type="line"/>
			<point x="129" y="1035" type="line" smooth="yes"/>
			<point x="129" y="1248"/>
			<point x="437" y="1478"/>
			<point x="670" y="1478" type="qcurve" smooth="yes"/>
			<point x="775" y="1478"/>
			<point x="959" y="1446"/>
			<point x="1024" y="1416" type="qcurve"/>
			<point x="895" y="1045" type="line"/>
			<point x="865" y="1054"/>
			<point x="814" y="1063"/>
			<point x="794" y="1063" type="qcurve" smooth="yes"/>
			<point x="739" y="1063"/>
			<point x="691" y="993"/>
			<point x="691" y="921" type="qcurve" smooth="yes"/>
			<point x="691" y="861" type="line"/>
		</contour>
	</outline>
</glyph>
<glyph name="circumflex" format="2">
  <advance width="1024"/>
  <unicode hex="02C6"/>
  <outline>
    <contour>
      <point x="705.0" y="1391.0" type="line"/>
      <point x="938.0" y="1000.0" type="line"/>
      <point x="559.0" y="1000.0" type="line"/>
      <point x="506.0" y="1103.0" type="line"/>
      <point x="453.0" y="1000.0" type="line"/>
      <point x="78.0" y="1000.0" type="line"/>
      <point x="306.0" y="1391.0" type="line"/>
    </contour>
  </outline>
</glyph>
<glyph name="caron" format="2">
  <advance width="1024"/>
  <unicode hex="02C7"/>
  <outline>
    <contour>
      <point x="311.0" y="1010.0" type="line"/>
      <point x="78.0" y="1401.0" type="line"/>
      <point x="457.0" y="1401.0" type="line"/>
      <point x="510.0" y="1298.0" type="line"/>
      <point x="563.0" y="1401.0" type="line"/>
      <point x="938.0" y="1401.0" type="line"/>
      <point x="710.0" y="1010.0" type="line"/>
    </contour>
  </outline>
</glyph>
<glyph name="breve" format="2">
  <advance width="1022"/>
  <unicode hex="02D8"/>
  <outline>
    <contour>
      <point x="707" y="1431" type="qcurve"/>
      <point x="941" y="1355" type="line"/>
      <point x="896" y="1217"/>
      <point x="673" y="984"/>
      <point x="513" y="984" type="qcurve" smooth="yes"/>
      <point x="369" y="984"/>
      <point x="139" y="1198"/>
      <point x="85" y="1357" type="qcurve"/>
      <point x="331" y="1431" type="line"/>
      <point x="359" y="1392"/>
      <point x="454" y="1327"/>
      <point x="516" y="1327" type="qcurve" smooth="yes"/>
      <point x="583" y="1327"/>
      <point x="678" y="1390"/>
    </contour>
  </outline>
</glyph>
<glyph name="dotaccent" format="2">
  <advance width="1024"/>
  <unicode hex="02D9"/>
  <outline>
    <contour>
      <point x="298.0" y="1202.0" type="qcurve" smooth="yes"/>
      <point x="298.0" y="1290.0"/>
      <point x="407.0" y="1411.0"/>
      <point x="512.0" y="1411.0" type="qcurve" smooth="yes"/>
      <point x="616.0" y="1411.0"/>
      <point x="726.0" y="1290.0"/>
      <point x="726.0" y="1202.0" type="qcurve" smooth="yes"/>
      <point x="726.0" y="1119.0"/>
      <point x="616.0" y="1000.0"/>
      <point x="512.0" y="1000.0" type="qcurve" smooth="yes"/>
      <point x="407.0" y="1000.0"/>
      <point x="298.0" y="1119.0"/>
    </contour>
  </outline>
</glyph>
<glyph name="ogonek" format="2">
  <advance width="1024"/>
  <unicode hex="02DB"/>
  <outline>
    <contour>
      <point x="490.0" y="56.0" type="qcurve"/>
      <point x="672.0" y="-1.0" type="line"/>
      <point x="630.0" y="-28.0"/>
      <point x="558.0" y="-91.0"/>
      <point x="558.0" y="-128.0" type="qcurve" smooth="yes"/>
      <point x="558.0" y="-146.0"/>
      <point x="582.0" y="-169.0"/>
      <point x="609.0" y="-169.0" type="qcurve" smooth="yes"/>
      <point x="631.0" y="-169.0"/>
      <point x="666.0" y="-158.0"/>
      <point x="676.0" y="-153.0" type="qcurve"/>
      <point x="698.0" y="-400.0" type="line"/>
      <point x="660.0" y="-416.0"/>
      <point x="543.0" y="-445.0"/>
      <point x="454.0" y="-445.0" type="qcurve" smooth="yes"/>
      <point x="332.0" y="-445.0"/>
      <point x="164.0" y="-345.0"/>
      <point x="164.0" y="-250.0" type="qcurve" smooth="yes"/>
      <point x="164.0" y="-169.0"/>
      <point x="350.0" y="-8.0"/>
    </contour>
  </outline>
</glyph>
<glyph name="hungarumlaut" format="2">
  <advance width="1024"/>
  <unicode hex="02DD"/>
  <outline>
    <contour>
      <point x="24.0" y="1168.0" type="line"/>
      <point x="266.0" y="1552.0" type="line"/>
      <point x="566.0" y="1342.0" type="line"/>
      <point x="281.0" y="1000.0" type="line"/>
    </contour>
    <contour>
      <point x="501.0" y="1168.0" type="line"/>
      <point x="744.0" y="1552.0" type="line"/>
      <point x="1044.0" y="1342.0" type="line"/>
      <point x="759.0" y="1000.0" type="line"/>
    </contour>
  </outline>
</glyph>
<glyph name="breveinvertedcomb" format="2">
  <advance width="1024"/>
  <unicode hex="030F"/>
  <anchor x="512.0" y="914" name="_top"/>
  <anchor x="512.0" y="1447.0" name="top"/>
  <outline>
    <contour>
      <point x="319.0" y="1000.0" type="qcurve"/>
      <point x="85.0" y="1076.0" type="line"/>
      <point x="130.0" y="1214.0"/>
      <point x="353.0" y="1447.0"/>
      <point x="513.0" y="1447.0" type="qcurve" smooth="yes"/>
      <point x="657.0" y="1447.0"/>
      <point x="887.0" y="1233.0"/>
      <point x="941.0" y="1074.0" type="qcurve"/>
      <point x="695.0" y="1000.0" type="line"/>
      <point x="667.0" y="1039.0"/>
      <point x="572.0" y="1104.0"/>
      <point x="510.0" y="1104.0" type="qcurve" smooth="yes"/>
      <point x="443.0" y="1104.0"/>
      <point x="348.0" y="1041.0"/>
    </contour>
  </outline>
</glyph>
<glyph name="dotbelowcomb" format="2">
  <advance width="1024"/>
  <unicode hex="0323"/>
  <anchor x="512.0" y="0" name="_bottom"/>
  <anchor x="512.0" y="-463.0" name="bottom"/>
  <outline>
    <contour>
      <point x="298.0" y="-261.0" type="qcurve" smooth="yes"/>
      <point x="298.0" y="-173.0"/>
      <point x="407.0" y="-52.0"/>
      <point x="512.0" y="-52.0" type="qcurve" smooth="yes"/>
      <point x="616.0" y="-52.0"/>
      <point x="726.0" y="-173.0"/>
      <point x="726.0" y="-261.0" type="qcurve" smooth="yes"/>
      <point x="726.0" y="-344.0"/>
      <point x="616.0" y="-463.0"/>
      <point x="512.0" y="-463.0" type="qcurve" smooth="yes"/>
      <point x="407.0" y="-463.0"/>
      <point x="298.0" y="-344.0"/>
    </contour>
  </outline>
</glyph>
<glyph name="commaaccentcomb" format="2">
  <advance width="1024"/>
  <unicode hex="0326"/>
  <outline>
    <contour>
      <point x="215" y="-455" type="line"/>
      <point x="244" y="-351"/>
      <point x="280" y="-211"/>
      <point x="303" y="-83" type="qcurve"/>
      <point x="825" y="-81" type="line"/>
      <point x="698" y="-458" type="line"/>
    </contour>
  </outline>
</glyph>
<glyph name="brevebelowcomb" format="2">
	<unicode hex="032E"/>
	<advance width="1024"/>
	<outline>
		<contour>
			<point x="707" y="-92" type="qcurve"/>
			<point x="941" y="-168" type="line"/>
			<point x="896" y="-306"/>
			<point x="673" y="-539"/>
			<point x="513" y="-539" type="qcurve" smooth="yes"/>
			<point x="369" y="-539"/>
			<point x="139" y="-325"/>
			<point x="85" y="-166" type="qcurve"/>
			<point x="331" y="-92" type="line"/>
			<point x="359" y="-131"/>
			<point x="454" y="-196"/>
			<point x="516" y="-196" type="qcurve" smooth="yes"/>
			<point x="583" y="-196"/>
			<point x="678" y="-133"/>
		</contour>
	</outline>
</glyph>
<glyph name="macronbelowcomb" format="2">
  <advance width="1024"/>
  <unicode hex="0331"/>
  <anchor x="512.0" y="0" name="_bottom"/>
  <anchor x="512.0" y="-475" name="bottom"/>
  <outline>
    <contour>
      <point x="178" y="-475" type="line"/>
      <point x="178" y="-123" type="line"/>
      <point x="846" y="-123" type="line"/>
      <point x="846" y="-475" type="line"/>
    </contour>
  </outline>
</glyph>
<glyph name="numeralsign" format="2">
  <advance width="631"/>
  <unicode hex="0374"/>
  <outline>
    <contour>
      <point x="399.0" y="1020.0" type="line"/>
      <point x="92.0" y="1082.0" type="line"/>
      <point x="197.0" y="1531.0" type="line"/>
      <point x="613.0" y="1443.0" type="line"/>
    </contour>
  </outline>
</glyph>
<glyph name="Xi" format="2">
  <advance width="1226"/>
  <unicode hex="039E"/>
  <outline>
    <contour>
      <point x="40.0" y="0.0" type="line"/>
      <point x="40.0" y="446.0" type="line"/>
      <point x="1206.0" y="446.0" type="line"/>
      <point x="1206.0" y="0.0" type="line"/>
    </contour>
    <contour>
      <point x="123.0" y="526.0" type="line"/>
      <point x="123.0" y="922.0" type="line"/>
      <point x="1123.0" y="922.0" type="line"/>
      <point x="1123.0" y="526.0" type="line"/>
    </contour>
    <contour>
      <point x="40.0" y="990.0" type="line"/>
      <point x="40.0" y="1456.0" type="line"/>
      <point x="1206.0" y="1456.0" type="line"/>
      <point x="1206.0" y="990.0" type="line"/>
    </contour>
  </outline>
</glyph>
<glyph name="Psi" format="2">
  <advance width="1992"/>
  <unicode hex="03A8"/>
  <outline>
    <contour>
      <point x="701" y="0.0" type="line"/>
      <point x="701" y="1456.0" type="line"/>
      <point x="1292" y="1456.0" type="line"/>
      <point x="1292" y="0.0" type="line"/>
    </contour>
    <contour>
      <point x="947" y="240.0" type="line"/>
      <point x="863" y="240.0" type="line" smooth="yes"/>
      <point x="434" y="240"/>
      <point x="12" y="595.0"/>
      <point x="12" y="902.0" type="qcurve" smooth="yes"/>
      <point x="12" y="1456.0" type="line"/>
      <point x="611" y="1456.0" type="line"/>
      <point x="611" y="886.0" type="line" smooth="yes"/>
      <point x="611" y="778.0"/>
      <point x="696" y="712.0"/>
      <point x="834" y="712.0" type="qcurve" smooth="yes"/>
      <point x="947" y="712.0" type="line"/>
    </contour>
    <contour>
      <point x="1043" y="240.0" type="line"/>
      <point x="1043" y="712.0" type="line"/>
      <point x="1176" y="712.0" type="line" smooth="yes"/>
      <point x="1303" y="712.0"/>
      <point x="1382" y="778.0"/>
      <point x="1382" y="886.0" type="qcurve" smooth="yes"/>
      <point x="1382" y="1456.0" type="line"/>
      <point x="1980" y="1456.0" type="line"/>
      <point x="1980" y="902.0" type="line" smooth="yes"/>
      <point x="1980" y="595"/>
      <point x="1556.0" y="240.0"/>
      <point x="1127" y="240.0" type="qcurve" smooth="yes"/>
    </contour>
  </outline>
</glyph>
<glyph name="Omega" format="2">
  <advance width="1427"/>
  <unicode hex="03A9"/>
  <anchor x="101.0" y="1456.0" name="GRK_topleft"/>
  <outline>
    <contour>
      <point x="24" y="0.0" type="line"/>
      <point x="24.0" y="473" type="line"/>
      <point x="315.0" y="473" type="line"/>
      <point x="315.0" y="505" type="line"/>
      <point x="175.0" y="567"/>
      <point x="24.0" y="797"/>
      <point x="24.0" y="948" type="qcurve"/>
      <point x="24.0" y="960" type="line"/>
      <point x="24.0" y="1208"/>
      <point x="383.0" y="1474.0"/>
      <point x="716.0" y="1474.0" type="qcurve"/>
      <point x="1047.0" y="1474.0"/>
      <point x="1403.0" y="1208"/>
      <point x="1403.0" y="960" type="qcurve"/>
      <point x="1403.0" y="948" type="line"/>
      <point x="1403.0" y="796"/>
      <point x="1252.0" y="566"/>
      <point x="1111.0" y="505" type="qcurve"/>
      <point x="1111.0" y="473" type="line"/>
      <point x="1403.0" y="473" type="line"/>
      <point x="1403" y="0.0" type="line"/>
      <point x="739" y="0.0" type="line"/>
      <point x="739.0" y="604" type="line"/>
      <point x="762.0" y="630"/>
      <point x="776.0" y="727"/>
      <point x="776.0" y="858" type="qcurve"/>
      <point x="776.0" y="885" type="line"/>
      <point x="776.0" y="1052"/>
      <point x="752.0" y="1155"/>
      <point x="713.0" y="1155" type="qcurve"/>
      <point x="675.0" y="1155"/>
      <point x="652.0" y="1052"/>
      <point x="652.0" y="885" type="qcurve"/>
      <point x="652.0" y="858" type="line"/>
      <point x="652.0" y="724"/>
      <point x="666.0" y="627"/>
      <point x="688.0" y="604" type="qcurve"/>
      <point x="690" y="0.0" type="line"/>
    </contour>
  </outline>
</glyph>
<glyph name="alpha" format="2">
  <advance width="1388"/>
  <unicode hex="03B1"/>
  <anchor x="448.0" y="920.0" name="GRK_top"/>
  <outline>
    <contour>
      <point x="482" y="-20" type="qcurve" smooth="yes"/>
      <point x="260" y="-20"/>
      <point x="21" y="221"/>
      <point x="21" y="445" type="qcurve" smooth="yes"/>
      <point x="21" y="478" type="line" smooth="yes"/>
      <point x="21" y="701"/>
      <point x="259" y="941"/>
      <point x="480" y="941" type="qcurve" smooth="yes"/>
      <point x="573" y="941"/>
      <point x="703" y="880"/>
      <point x="721" y="833" type="qcurve"/>
      <point x="720" y="833" type="line"/>
      <point x="720" y="914" type="line"/>
      <point x="1297" y="914" type="line"/>
      <point x="1297" y="380.0" type="line" smooth="yes"/>
      <point x="1297.0" y="351.0"/>
      <point x="1326" y="333.0"/>
      <point x="1346" y="333.0" type="qcurve"/>
      <point x="1358" y="333.0"/>
      <point x="1383" y="339.0"/>
      <point x="1394" y="344.0" type="qcurve"/>
      <point x="1394" y="4.0" type="line"/>
      <point x="1336" y="-9.0"/>
      <point x="1157" y="-22.0"/>
      <point x="1049" y="-22.0" type="qcurve" smooth="yes"/>
      <point x="910" y="-22.0"/>
      <point x="751" y="65"/>
      <point x="742" y="145" type="qcurve"/>
      <point x="742" y="145" type="line"/>
      <point x="723" y="66"/>
      <point x="598" y="-20"/>
    </contour>
    <contour>
      <point x="660" y="343" type="qcurve" smooth="yes"/>
      <point x="679" y="343"/>
      <point x="713" y="367"/>
      <point x="720" y="394" type="qcurve"/>
      <point x="720" y="529" type="line"/>
      <point x="714" y="548"/>
      <point x="682" y="570"/>
      <point x="660" y="570" type="qcurve" smooth="yes"/>
      <point x="632" y="570"/>
      <point x="602" y="532"/>
      <point x="602" y="479" type="qcurve" smooth="yes"/>
      <point x="602" y="435" type="line" smooth="yes"/>
      <point x="602" y="383"/>
      <point x="632" y="343"/>
    </contour>
  </outline>
</glyph>
<glyph name="epsilon" format="2">
  <advance width="1282"/>
  <unicode hex="03B5"/>
  <anchor x="499.0" y="920.0" name="GRK_top"/>
  <outline>
    <contour>
      <point x="603" y="-20.0" type="qcurve"/>
      <point x="296" y="-20.0"/>
      <point x="21.0" y="104.0"/>
      <point x="21.0" y="242.0" type="qcurve" smooth="yes"/>
      <point x="21.0" y="366.0"/>
      <point x="159" y="477.0"/>
      <point x="312" y="476.0" type="qcurve"/>
      <point x="312" y="457.0" type="line"/>
      <point x="173" y="478.0"/>
      <point x="49" y="586.0"/>
      <point x="49" y="686.0" type="qcurve" smooth="yes"/>
      <point x="49" y="825.0"/>
      <point x="328" y="950.0"/>
      <point x="640" y="950.0" type="qcurve" smooth="yes"/>
      <point x="952" y="952.0"/>
      <point x="1242" y="736.0"/>
      <point x="1254" y="527.0" type="qcurve"/>
      <point x="707.0" y="527" type="line"/>
      <point x="709.0" y="581"/>
      <point x="684.0" y="630"/>
      <point x="655.0" y="630" type="qcurve" smooth="yes"/>
      <point x="632.0" y="630"/>
      <point x="611.0" y="606"/>
      <point x="611.0" y="580" type="qcurve" smooth="yes"/>
      <point x="611.0" y="553"/>
      <point x="631.0" y="527"/>
      <point x="654.0" y="526" type="qcurve" smooth="yes"/>
      <point x="681.0" y="526" type="line"/>
      <point x="681.0" y="392" type="line"/>
      <point x="642.0" y="392" type="line" smooth="yes"/>
      <point x="621.0" y="392"/>
      <point x="602.0" y="361"/>
      <point x="602.0" y="326" type="qcurve" smooth="yes"/>
      <point x="602.0" y="300"/>
      <point x="622.0" y="277"/>
      <point x="644.0" y="277" type="qcurve"/>
      <point x="677.0" y="277"/>
      <point x="708.0" y="331"/>
      <point x="709.0" y="391" type="qcurve"/>
      <point x="1257" y="391.0" type="line"/>
      <point x="1257" y="174.0"/>
      <point x="948" y="-20.0"/>
    </contour>
  </outline>
</glyph>
<glyph name="eta" format="2">
  <advance width="1327"/>
  <unicode hex="03B7"/>
  <anchor x="466.0" y="920.0" name="GRK_top"/>
  <outline>
    <contour>
      <point x="707" y="-416" type="line"/>
      <point x="707" y="486" type="line" smooth="yes"/>
      <point x="707" y="511"/>
      <point x="687" y="536"/>
      <point x="671" y="536" type="qcurve" smooth="yes"/>
      <point x="655" y="536"/>
      <point x="632" y="510"/>
      <point x="625" y="489" type="qcurve"/>
      <point x="625" y="0" type="line"/>
      <point x="45" y="0" type="line"/>
      <point x="45" y="914" type="line"/>
      <point x="623" y="914" type="line"/>
      <point x="623" y="794" type="line"/>
      <point x="627" y="794" type="line"/>
      <point x="652" y="855"/>
      <point x="806" y="943"/>
      <point x="940" y="943" type="qcurve" smooth="yes"/>
      <point x="1092" y="943"/>
      <point x="1287" y="783"/>
      <point x="1287" y="606" type="qcurve" smooth="yes"/>
      <point x="1287" y="-416" type="line"/>
    </contour>
  </outline>
</glyph>
<glyph name="lambda" format="2">
  <advance width="1265"/>
  <unicode hex="03BB"/>
  <outline>
    <contour>
      <point x="-10" y="0" type="line"/>
      <point x="370" y="913" type="line"/>
      <point x="370" y="914" type="line"/>
      <point x="333" y="1018"/>
      <point x="259" y="1095.0"/>
      <point x="204" y="1095.0" type="qcurve" smooth="yes"/>
      <point x="171" y="1095.0"/>
      <point x="111" y="1090.0"/>
      <point x="55" y="1083.0" type="qcurve"/>
      <point x="55" y="1428.0" type="line"/>
      <point x="117" y="1444.0"/>
      <point x="221" y="1456.0"/>
      <point x="298" y="1456.0" type="qcurve" smooth="yes"/>
      <point x="537.0" y="1456.0"/>
      <point x="827" y="1144"/>
      <point x="955" y="818" type="qcurve" smooth="yes"/>
      <point x="1275" y="0" type="line"/>
      <point x="774" y="0" type="line"/>
      <point x="670" y="303" type="line" smooth="yes"/>
      <point x="664" y="320"/>
      <point x="656" y="345"/>
      <point x="651" y="361" type="qcurve"/>
      <point x="647" y="361" type="line"/>
      <point x="642" y="345"/>
      <point x="634" y="320"/>
      <point x="629" y="304" type="qcurve" smooth="yes"/>
      <point x="538" y="0" type="line"/>
    </contour>
  </outline>
</glyph>
<glyph name="mu" format="2">
  <advance width="1322"/>
  <unicode hex="03BC"/>
  <outline>
    <contour>
      <point x="40" y="-444.0" type="line"/>
      <point x="40" y="914.0" type="line"/>
      <point x="619" y="914.0" type="line"/>
      <point x="619" y="460.0" type="line"/>
      <point x="619" y="410.0"/>
      <point x="630" y="368.0"/>
      <point x="650" y="368.0" type="qcurve" smooth="yes"/>
      <point x="687" y="368.0"/>
      <point x="701.0" y="453.0"/>
      <point x="701" y="593.0" type="qcurve" smooth="yes"/>
      <point x="701" y="914.0" type="line"/>
      <point x="1282" y="914.0" type="line"/>
      <point x="1282" y="439.0" type="line" smooth="yes"/>
      <point x="1282" y="385.0"/>
      <point x="1297" y="345.0"/>
      <point x="1315" y="345.0" type="qcurve" smooth="yes"/>
      <point x="1325" y="345.0"/>
      <point x="1344" y="350.0"/>
      <point x="1355" y="357.0" type="qcurve"/>
      <point x="1355" y="22.0" type="line"/>
      <point x="1307" y="1.0"/>
      <point x="1089" y="-27.0"/>
      <point x="968" y="-27.0" type="qcurve"/>
      <point x="862" y="-27.0"/>
      <point x="730" y="46.0"/>
      <point x="722" y="132.0" type="qcurve"/>
      <point x="722" y="132.0" type="line"/>
      <point x="717.0" y="64.0"/>
      <point x="691.0" y="-23.0"/>
      <point x="664" y="-23" type="qcurve" smooth="yes"/>
      <point x="645" y="-23"/>
      <point x="622" y="22.0"/>
      <point x="619" y="58.0" type="qcurve"/>
      <point x="619" y="-444.0" type="line"/>
    </contour>
  </outline>
</glyph>
<glyph name="pi" format="2">
  <advance width="1378"/>
  <unicode hex="03C0"/>
  <outline>
    <contour>
      <point x="-16" y="534" type="line"/>
      <point x="-16" y="920" type="line"/>
      <point x="1349" y="920" type="line"/>
      <point x="1349" y="534" type="line"/>
    </contour>
    <contour>
      <point x="46" y="0" type="line"/>
      <point x="46" y="788" type="line"/>
      <point x="625" y="788" type="line"/>
      <point x="625" y="0" type="line"/>
    </contour>
    <contour>
      <point x="1039" y="-27" type="qcurve" smooth="yes"/>
      <point x="864" y="-27"/>
      <point x="707.0" y="159"/>
      <point x="707" y="360" type="qcurve" smooth="yes"/>
      <point x="707" y="915" type="line"/>
      <point x="1287" y="915" type="line"/>
      <point x="1287" y="372" type="line"/>
      <point x="1287" y="351"/>
      <point x="1316" y="333"/>
      <point x="1336" y="333" type="qcurve"/>
      <point x="1348" y="333"/>
      <point x="1373" y="339"/>
      <point x="1384" y="344" type="qcurve"/>
      <point x="1384" y="4" type="line"/>
      <point x="1326" y="-9"/>
      <point x="1147" y="-27"/>
    </contour>
  </outline>
</glyph>
<glyph name="rho" format="2">
  <advance width="1339"/>
  <unicode hex="03C1"/>
  <outline>
    <contour>
      <point x="45" y="-416.0" type="line"/>
      <point x="45" y="427.0" type="line" smooth="yes"/>
      <point x="45" y="666.0"/>
      <point x="355" y="952.0"/>
      <point x="701" y="952.0" type="qcurve" smooth="yes"/>
      <point x="1016" y="952.0"/>
      <point x="1319" y="707.0"/>
      <point x="1319" y="478.0" type="qcurve" smooth="yes"/>
      <point x="1319" y="443.0" type="line" smooth="yes"/>
      <point x="1319" y="204.0"/>
      <point x="1057" y="-20.0"/>
      <point x="886" y="-20.0" type="qcurve" smooth="yes"/>
      <point x="814" y="-20.0"/>
      <point x="659" y="26.0"/>
      <point x="622" y="83.0" type="qcurve"/>
      <point x="622" y="-416.0" type="line"/>
    </contour>
    <contour>
      <point x="683.0" y="344" type="qcurve" smooth="yes"/>
      <point x="703.0" y="344"/>
      <point x="736.0" y="374"/>
      <point x="736.0" y="434" type="qcurve" smooth="yes"/>
      <point x="736.0" y="481" type="line" smooth="yes"/>
      <point x="736.0" y="535"/>
      <point x="703.0" y="570"/>
      <point x="679.0" y="570" type="qcurve" smooth="yes"/>
      <point x="645.0" y="570"/>
      <point x="622.0" y="522"/>
      <point x="622.0" y="461" type="qcurve" smooth="yes"/>
      <point x="622.0" y="395" type="line"/>
      <point x="627.0" y="373"/>
      <point x="663.0" y="344"/>
    </contour>
  </outline>
</glyph>
<glyph name="finalsigma" format="2">
  <advance width="1317"/>
  <unicode hex="03C2"/>
  <outline>
    <contour>
      <point x="656" y="-348.0" type="line"/>
      <point x="686" y="-307.0"/>
      <point x="733" y="-213.0"/>
      <point x="733" y="-165.0" type="qcurve" smooth="yes"/>
      <point x="733" y="-116.0"/>
      <point x="669" y="-68.0"/>
      <point x="602" y="-52.0" type="qcurve" smooth="yes"/>
      <point x="534" y="-36.0" type="line" smooth="yes"/>
      <point x="264" y="17.0"/>
      <point x="20" y="205"/>
      <point x="20" y="407.0" type="qcurve" smooth="yes"/>
      <point x="20" y="466.0" type="line" smooth="yes"/>
      <point x="20" y="711.0"/>
      <point x="388" y="940.0"/>
      <point x="668" y="940.0" type="qcurve" smooth="yes"/>
      <point x="959" y="940.0"/>
      <point x="1262.0" y="716.0"/>
      <point x="1262" y="505.0" type="qcurve" smooth="yes"/>
      <point x="1262" y="496.0" type="line"/>
      <point x="707.0" y="496" type="line"/>
      <point x="707.0" y="505" type="line" smooth="yes"/>
      <point x="707" y="539"/>
      <point x="685.0" y="569"/>
      <point x="656.0" y="569" type="qcurve" smooth="yes"/>
      <point x="621.0" y="569.0"/>
      <point x="603.0" y="517"/>
      <point x="603.0" y="474" type="qcurve" smooth="yes"/>
      <point x="603.0" y="465.0" type="line" smooth="yes"/>
      <point x="603.0" y="387"/>
      <point x="895" y="352"/>
      <point x="990" y="331" type="qcurve" smooth="yes"/>
      <point x="1060" y="315" type="line" smooth="yes"/>
      <point x="1189" y="286"/>
      <point x="1304" y="138"/>
      <point x="1304" y="1" type="qcurve" smooth="yes"/>
      <point x="1304" y="-89"/>
      <point x="1235" y="-275"/>
      <point x="1176" y="-348" type="qcurve"/>
    </contour>
  </outline>
</glyph>
<glyph name="sigma" format="2">
  <advance width="1322"/>
  <unicode hex="03C3"/>
  <outline>
    <contour>
      <point x="664" y="-20.0" type="qcurve" smooth="yes"/>
      <point x="372" y="-20.0"/>
      <point x="20" y="231.0"/>
      <point x="20" y="444.0" type="qcurve" smooth="yes"/>
      <point x="20" y="476.0" type="line" smooth="yes"/>
      <point x="20" y="699.0"/>
      <point x="366" y="914.0"/>
      <point x="722" y="914.0" type="qcurve"/>
      <point x="1347" y="914.0" type="line"/>
      <point x="1347.0" y="549" type="line"/>
      <point x="983.0" y="549" type="line"/>
      <point x="983" y="840.0" type="line"/>
      <point x="1121" y="808.0"/>
      <point x="1302" y="601.0"/>
      <point x="1302" y="470.0" type="qcurve" smooth="yes"/>
      <point x="1302" y="437.0" type="line" smooth="yes"/>
      <point x="1302" y="238.0"/>
      <point x="956" y="-20.0"/>
    </contour>
    <contour>
      <point x="662" y="350.0" type="qcurve" smooth="yes"/>
      <point x="692" y="350.0"/>
      <point x="719" y="394.0"/>
      <point x="719" y="444.0" type="qcurve" smooth="yes"/>
      <point x="719" y="481.0" type="line" smooth="yes"/>
      <point x="719" y="518.0"/>
      <point x="703" y="560.0"/>
      <point x="686" y="570.0" type="qcurve"/>
      <point x="642" y="581.0"/>
      <point x="603" y="539.0"/>
      <point x="603" y="481.0" type="qcurve" smooth="yes"/>
      <point x="603" y="444.0" type="line" smooth="yes"/>
      <point x="603" y="394.0"/>
      <point x="631" y="350.0"/>
    </contour>
  </outline>
</glyph>
<glyph name="upsilon" format="2">
  <advance width="1322"/>
  <unicode hex="03C5"/>
  <anchor x="522.0" y="920.0" name="GRK_top"/>
  <outline>
    <contour>
      <point x="661" y="-20.0" type="qcurve" smooth="yes"/>
      <point x="334" y="-20.0"/>
      <point x="40.0" y="182"/>
      <point x="40.0" y="408" type="qcurve" smooth="yes"/>
      <point x="40" y="914.0" type="line"/>
      <point x="619" y="914.0" type="line"/>
      <point x="619.0" y="428" type="line" smooth="yes"/>
      <point x="619.0" y="398"/>
      <point x="638.0" y="368"/>
      <point x="660.0" y="368" type="qcurve" smooth="yes"/>
      <point x="684.0" y="368"/>
      <point x="702.0" y="398"/>
      <point x="702.0" y="428" type="qcurve" smooth="yes"/>
      <point x="702" y="914.0" type="line"/>
      <point x="1282" y="914.0" type="line"/>
      <point x="1282.0" y="408" type="line" smooth="yes"/>
      <point x="1282.0" y="182"/>
      <point x="988" y="-20.0"/>
    </contour>
  </outline>
</glyph>
<glyph name="phi" format="2">
  <advance width="1939"/>
  <unicode hex="03C6"/>
  <outline>
    <contour>
      <point x="686" y="-444.0" type="line"/>
      <point x="686" y="-20.0" type="line"/>
      <point x="318" y="-6.0"/>
      <point x="20" y="233.0"/>
      <point x="20" y="442.0" type="qcurve" smooth="yes"/>
      <point x="20" y="474.0" type="line" smooth="yes"/>
      <point x="20" y="681.0"/>
      <point x="319" y="938.0"/>
      <point x="686" y="952.0" type="qcurve"/>
      <point x="686" y="1446.0" type="line"/>
      <point x="1253" y="1446.0" type="line"/>
      <point x="1253" y="952.0" type="line"/>
      <point x="1639" y="938.0"/>
      <point x="1919" y="681.0"/>
      <point x="1919" y="472.0" type="qcurve" smooth="yes"/>
      <point x="1919" y="440.0" type="line" smooth="yes"/>
      <point x="1919" y="233.0"/>
      <point x="1638" y="-6.0"/>
      <point x="1253" y="-20.0" type="qcurve"/>
      <point x="1253" y="-444.0" type="line"/>
    </contour>
    <contour>
      <point x="686.0" y="351" type="qcurve"/>
      <point x="686.0" y="569" type="line"/>
      <point x="640.0" y="569"/>
      <point x="599.0" y="520"/>
      <point x="599.0" y="466" type="qcurve" smooth="yes"/>
      <point x="599.0" y="452" type="line" smooth="yes"/>
      <point x="599.0" y="399"/>
      <point x="640.0" y="351"/>
    </contour>
    <contour>
      <point x="1253" y="356.0" type="line"/>
      <point x="1299" y="356.0"/>
      <point x="1340" y="403.0"/>
      <point x="1340" y="456.0" type="qcurve" smooth="yes"/>
      <point x="1340" y="471.0" type="line" smooth="yes"/>
      <point x="1340" y="526.0"/>
      <point x="1299" y="575.0"/>
      <point x="1253" y="575.0" type="qcurve"/>
    </contour>
  </outline>
</glyph>
<glyph name="omega" format="2">
  <advance width="1985"/>
  <unicode hex="03C9"/>
  <anchor x="678.0" y="920.0" name="GRK_top"/>
  <outline>
    <contour>
      <point x="583" y="-20" type="qcurve" smooth="yes"/>
      <point x="330" y="-20"/>
      <point x="40" y="214"/>
      <point x="40" y="424" type="qcurve"/>
      <point x="40" y="628"/>
      <point x="182" y="872"/>
      <point x="270" y="920" type="qcurve"/>
      <point x="680" y="920" type="line"/>
      <point x="648" y="841"/>
      <point x="619" y="654"/>
      <point x="619" y="525" type="qcurve"/>
      <point x="619" y="447"/>
      <point x="642" y="377"/>
      <point x="667" y="377" type="qcurve"/>
      <point x="684" y="377"/>
      <point x="700" y="417"/>
      <point x="700" y="461" type="qcurve" smooth="yes"/>
      <point x="700" y="782" type="line"/>
      <point x="1282" y="782" type="line"/>
      <point x="1282" y="461" type="line" smooth="yes"/>
      <point x="1282" y="417"/>
      <point x="1297" y="377"/>
      <point x="1314" y="377" type="qcurve"/>
      <point x="1339" y="377"/>
      <point x="1361" y="447"/>
      <point x="1361" y="526" type="qcurve"/>
      <point x="1361" y="656"/>
      <point x="1333" y="842"/>
      <point x="1301" y="920" type="qcurve"/>
      <point x="1715" y="920" type="line"/>
      <point x="1804" y="872"/>
      <point x="1945" y="628"/>
      <point x="1945" y="424" type="qcurve"/>
      <point x="1945" y="220"/>
      <point x="1666" y="-20"/>
      <point x="1389" y="-20" type="qcurve" smooth="yes"/>
      <point x="1243" y="-20"/>
      <point x="1048" y="73"/>
      <point x="977" y="193" type="qcurve"/>
      <point x="1010" y="193" type="line"/>
      <point x="944" y="78"/>
      <point x="744" y="-20"/>
    </contour>
  </outline>
</glyph>
<glyph name="Kaisymbol" format="2">
  <advance width="1436"/>
  <unicode hex="03CF"/>
  <outline>
    <contour>
      <point x="719" y="-668" type="line"/>
      <point x="427" y="-330" type="line"/>
      <point x="813" y="0" type="line"/>
      <point x="643" y="390" type="line"/>
      <point x="640" y="386" type="line"/>
      <point x="640" y="0" type="line"/>
      <point x="40" y="0" type="line"/>
      <point x="40" y="1456" type="line"/>
      <point x="640" y="1456" type="line"/>
      <point x="640" y="1103" type="line"/>
      <point x="837" y="1456" type="line"/>
      <point x="1440" y="1456" type="line"/>
      <point x="1005" y="875" type="line"/>
      <point x="1481" y="-9" type="line"/>
    </contour>
  </outline>
</glyph>
<glyph name="kaisymbol" format="2">
  <advance width="1469"/>
  <unicode hex="03D7"/>
  <outline>
    <contour>
      <point x="911.0" y="-559.0" type="line"/>
      <point x="626.0" y="-201.0" type="line"/>
      <point x="822" y="-13" type="line"/>
      <point x="645" y="264" type="line"/>
      <point x="625" y="264" type="line"/>
      <point x="625" y="0" type="line"/>
      <point x="45" y="0" type="line"/>
      <point x="45" y="914" type="line"/>
      <point x="625" y="914" type="line"/>
      <point x="625" y="654" type="line"/>
      <point x="645" y="654" type="line"/>
      <point x="795" y="914" type="line"/>
      <point x="1446" y="914" type="line"/>
      <point x="1143" y="458" type="line"/>
      <point x="1498" y="-12" type="line"/>
    </contour>
  </outline>
</glyph>
<glyph name="Ieukran" format="2">
  <advance width="1359"/>
  <unicode hex="0404"/>
  <guideline x="297" y="731" angle="90" identifier="ECzypWiAig"/>
  <guideline x="211" y="787" angle="90" identifier="aEihwrEwEg"/>
  <guideline x="211" y="787" angle="90" identifier="No8lsTqkbR"/>
  <guideline x="297" y="731" angle="90" identifier="jhGU0tNwfm"/>
  <outline>
    <contour>
      <point x="293" y="920" type="line"/>
      <point x="878" y="920" type="line"/>
      <point x="878" y="532" type="line"/>
      <point x="293" y="532" type="line"/>
    </contour>
    <contour>
      <point x="25" y="689" type="qcurve" smooth="yes"/>
      <point x="25" y="767" type="line" smooth="yes"/>
      <point x="25" y="1151"/>
      <point x="404" y="1475"/>
      <point x="713" y="1475" type="qcurve" smooth="yes"/>
      <point x="1001" y="1475"/>
      <point x="1336" y="1248"/>
      <point x="1336" y="988" type="qcurve" smooth="yes"/>
      <point x="1336" y="970" type="line"/>
      <point x="779" y="970" type="line"/>
      <point x="779" y="1024" type="line" smooth="yes"/>
      <point x="779" y="1049"/>
      <point x="751" y="1082"/>
      <point x="727" y="1082" type="qcurve" smooth="yes"/>
      <point x="700" y="1082"/>
      <point x="669" y="1036"/>
      <point x="669" y="975" type="qcurve" smooth="yes"/>
      <point x="669" y="480" type="line" smooth="yes"/>
      <point x="669" y="412"/>
      <point x="699" y="362"/>
      <point x="727" y="362" type="qcurve" smooth="yes"/>
      <point x="754" y="362"/>
      <point x="779" y="410"/>
      <point x="779" y="470" type="qcurve" smooth="yes"/>
      <point x="779" y="482" type="line"/>
      <point x="1336" y="482" type="line"/>
      <point x="1336" y="450" type="line" smooth="yes"/>
      <point x="1336" y="223"/>
      <point x="1001" y="-19"/>
      <point x="713" y="-19" type="qcurve" smooth="yes"/>
      <point x="400" y="-19"/>
      <point x="25" y="312"/>
    </contour>
  </outline>
</glyph>
<glyph name="Tshe" format="2">
	<unicode hex="040B"/>
	<advance width="1643"/>
	<outline>
		<contour>
			<point x="1005" y="0" type="line"/>
			<point x="1005" y="284" type="line" smooth="yes"/>
			<point x="1005" y="333"/>
			<point x="985" y="377"/>
			<point x="951" y="377" type="qcurve" smooth="yes"/>
			<point x="897" y="377"/>
			<point x="789" y="361"/>
			<point x="625" y="331" type="qcurve"/>
			<point x="625" y="771" type="line"/>
			<point x="735" y="809"/>
			<point x="955" y="859"/>
			<point x="1101" y="859" type="qcurve" smooth="yes"/>
			<point x="1372" y="859"/>
			<point x="1605" y="608"/>
			<point x="1605" y="330" type="qcurve" smooth="yes"/>
			<point x="1605" y="0" type="line"/>
		</contour>
		<contour>
			<point x="4" y="990" type="line"/>
			<point x="4" y="1456" type="line"/>
			<point x="1304" y="1456" type="line"/>
			<point x="1304" y="990" type="line"/>
			<point x="930" y="990" type="line"/>
			<point x="930" y="0" type="line"/>
			<point x="320" y="0" type="line"/>
			<point x="320" y="990" type="line"/>
		</contour>
	</outline>
</glyph>
<glyph name="Ghe" format="2">
	<unicode hex="0413"/>
	<advance width="1113"/>
	<outline>
		<contour>
			<point x="40" y="0" type="line"/>
			<point x="40" y="1456" type="line"/>
			<point x="1103" y="1456" type="line"/>
			<point x="1103" y="986" type="line"/>
			<point x="640" y="986" type="line"/>
			<point x="640" y="0" type="line"/>
		</contour>
	</outline>
</glyph>
<glyph name="Ze" format="2">
	<unicode hex="0417"/>
	<advance width="1304"/>
	<outline>
		<contour>
			<point x="656" y="359" type="qcurve" smooth="yes"/>
			<point x="686" y="359"/>
			<point x="719" y="405"/>
			<point x="719" y="448" type="qcurve" smooth="yes"/>
			<point x="719" y="492"/>
			<point x="687" y="532"/>
			<point x="646" y="532" type="qcurve" smooth="yes"/>
			<point x="475" y="532" type="line"/>
			<point x="475" y="920" type="line"/>
			<point x="630" y="920" type="line" smooth="yes"/>
			<point x="671" y="920"/>
			<point x="704" y="958"/>
			<point x="704" y="1009" type="qcurve" smooth="yes"/>
			<point x="704" y="1052"/>
			<point x="678" y="1095"/>
			<point x="647" y="1095" type="qcurve" smooth="yes"/>
			<point x="616" y="1095"/>
			<point x="591" y="1049"/>
			<point x="591" y="1000" type="qcurve" smooth="yes"/>
			<point x="591" y="970" type="line"/>
			<point x="36" y="970" type="line"/>
			<point x="36" y="997" type="line" smooth="yes"/>
			<point x="36" y="1230"/>
			<point x="366" y="1476"/>
			<point x="665" y="1476" type="qcurve" smooth="yes"/>
			<point x="938" y="1476"/>
			<point x="1277" y="1253"/>
			<point x="1277" y="1074" type="qcurve" smooth="yes"/>
			<point x="1277" y="972"/>
			<point x="1191" y="817"/>
			<point x="1103" y="767" type="qcurve"/>
			<point x="1103" y="763" type="line"/>
			<point x="1173" y="738"/>
			<point x="1304" y="577"/>
			<point x="1304" y="437" type="qcurve" smooth="yes"/>
			<point x="1304" y="246"/>
			<point x="927" y="-20"/>
			<point x="656" y="-20" type="qcurve" smooth="yes"/>
			<point x="384" y="-20"/>
			<point x="18" y="227"/>
			<point x="18" y="453" type="qcurve" smooth="yes"/>
			<point x="18" y="482" type="line"/>
			<point x="589" y="482" type="line"/>
			<point x="589" y="449" type="line" smooth="yes"/>
			<point x="589" y="396"/>
			<point x="622" y="359"/>
		</contour>
	</outline>
</glyph>
<glyph name="Icyr" format="2">
	<unicode hex="0418"/>
	<advance width="1389"/>
	<outline>
		<contour>
			<point x="1349" y="0" type="line"/>
			<point x="759" y="0" type="line"/>
			<point x="760" y="390" type="line" smooth="yes"/>
			<point x="760" y="456"/>
			<point x="764" y="527"/>
			<point x="765" y="563" type="qcurve"/>
			<point x="755" y="563" type="line"/>
			<point x="749" y="525"/>
			<point x="738" y="462"/>
			<point x="724" y="392" type="qcurve" smooth="yes"/>
			<point x="645" y="0" type="line"/>
			<point x="40" y="0" type="line"/>
			<point x="40" y="1456" type="line"/>
			<point x="630" y="1456" type="line"/>
			<point x="629" y="1076" type="line" smooth="yes"/>
			<point x="629" y="1005"/>
			<point x="626" y="922"/>
			<point x="624" y="888" type="qcurve"/>
			<point x="634" y="888" type="line"/>
			<point x="640.002247628" y="922.0127365588"/>
			<point x="654.2160352872" y="1005.8988084793"/>
			<point x="668" y="1075" type="qcurve" smooth="yes"/>
			<point x="744" y="1456" type="line"/>
			<point x="1349" y="1456" type="line"/>
		</contour>
	</outline>
	<guideline x="739" y="930" angle="90" identifier="Jld9vLGz5h"/>
	<guideline x="739" y="930" angle="90" identifier="5snmEtkfhq"/>
</glyph>
<glyph name="Ucyr" format="2">
  <advance width="1421"/>
  <unicode hex="0423"/>
  <outline>
    <contour>
      <point x="190" y="503" type="line"/>
      <point x="208" y="496"/>
      <point x="280" y="483"/>
      <point x="308" y="483" type="qcurve" smooth="yes"/>
      <point x="374.935483871" y="483"/>
      <point x="448.5027122618" y="530.0440946977"/>
      <point x="474" y="583" type="qcurve"/>
      <point x="453" y="393" type="line"/>
      <point x="-25" y="1456" type="line"/>
      <point x="620" y="1456" type="line"/>
      <point x="728" y="1115" type="line" smooth="yes"/>
      <point x="734" y="1095"/>
      <point x="746" y="1054"/>
      <point x="752" y="1032" type="qcurve"/>
      <point x="755" y="1032" type="line"/>
      <point x="760" y="1054"/>
      <point x="772" y="1095"/>
      <point x="778" y="1115" type="qcurve" smooth="yes"/>
      <point x="879" y="1456" type="line"/>
      <point x="1446" y="1456" type="line"/>
      <point x="1028" y="520" type="line" smooth="yes"/>
      <point x="910" y="255"/>
      <point x="654" y="-30"/>
      <point x="421" y="-30" type="qcurve" smooth="yes"/>
      <point x="317" y="-30"/>
      <point x="209.8539494602" y="-9.0245224819"/>
      <point x="190" y="0" type="qcurve"/>
    </contour>
  </outline>
</glyph>
<glyph name="Tse" format="2">
	<unicode hex="0426"/>
	<advance width="1440"/>
	<outline>
		<contour>
			<point x="870" y="-290" type="line"/>
			<point x="870" y="0" type="line"/>
			<point x="40" y="0" type="line"/>
			<point x="40" y="1456" type="line"/>
			<point x="640" y="1456" type="line"/>
			<point x="640" y="470" type="line"/>
			<point x="730" y="470" type="line"/>
			<point x="730" y="1456" type="line"/>
			<point x="1330" y="1456" type="line"/>
			<point x="1330" y="470" type="line"/>
			<point x="1430" y="470" type="line"/>
			<point x="1430" y="-290" type="line"/>
		</contour>
	</outline>
</glyph>
<glyph name="Che" format="2">
	<unicode hex="0427"/>
	<advance width="1363"/>
	<outline>
		<contour>
			<point x="638" y="992" type="line" smooth="yes"/>
			<point x="638" y="943"/>
			<point x="658" y="899"/>
			<point x="692" y="899" type="qcurve" smooth="yes"/>
			<point x="746" y="899"/>
			<point x="854" y="915"/>
			<point x="1018" y="945" type="qcurve"/>
			<point x="1018" y="505" type="line"/>
			<point x="853" y="450"/>
			<point x="640" y="417"/>
			<point x="542" y="417" type="qcurve" smooth="yes"/>
			<point x="266" y="418"/>
			<point x="38" y="672"/>
			<point x="38" y="946" type="qcurve" smooth="yes"/>
			<point x="38" y="1456" type="line"/>
			<point x="638" y="1456" type="line"/>
		</contour>
		<contour>
			<point x="1323" y="1456" type="line"/>
			<point x="1323" y="0" type="line"/>
			<point x="723" y="0" type="line"/>
			<point x="723" y="1456" type="line"/>
		</contour>
	</outline>
	<guideline x="1123" y="741" angle="90" identifier="nfCxFSb4p1"/>
</glyph>
<glyph name="Hard" format="2">
	<unicode hex="042A"/>
	<advance width="1533"/>
	<outline>
		<contour>
			<point x="4" y="990" type="line"/>
			<point x="4" y="1456" type="line"/>
			<point x="784" y="1456" type="line"/>
			<point x="784" y="1061" type="line"/>
			<point x="987" y="1061" type="line" smooth="yes"/>
			<point x="1273" y="1061"/>
			<point x="1521" y="769"/>
			<point x="1521" y="534" type="qcurve" smooth="yes"/>
			<point x="1521" y="285"/>
			<point x="1248" y="0"/>
			<point x="986" y="0" type="qcurve" smooth="yes"/>
			<point x="184" y="0" type="line"/>
			<point x="184" y="990" type="line"/>
		</contour>
		<contour>
			<point x="784" y="636" type="line"/>
			<point x="784" y="425" type="line"/>
			<point x="837" y="425" type="line" smooth="yes"/>
			<point x="885" y="425"/>
			<point x="923" y="485"/>
			<point x="923" y="532" type="qcurve" smooth="yes"/>
			<point x="923" y="576"/>
			<point x="885" y="636"/>
			<point x="837" y="636" type="qcurve" smooth="yes"/>
		</contour>
	</outline>
</glyph>
<glyph name="Yu" format="2">
	<unicode hex="042E"/>
	<advance width="2093"/>
	<outline>
		<contour>
			<point x="39" y="0" type="line"/>
			<point x="39" y="1456" type="line"/>
			<point x="639" y="1456" type="line"/>
			<point x="639" y="992" type="line"/>
			<point x="1003" y="992" type="line"/>
			<point x="1003" y="513" type="line"/>
			<point x="639" y="513" type="line"/>
			<point x="639" y="0" type="line"/>
		</contour>
		<contour>
			<point x="689" y="689" type="qcurve" smooth="yes"/>
			<point x="689" y="767" type="line" smooth="yes"/>
			<point x="689" y="1136"/>
			<point x="1080" y="1476"/>
			<point x="1379" y="1476" type="qcurve" smooth="yes"/>
			<point x="1679" y="1476"/>
			<point x="2069" y="1136"/>
			<point x="2069" y="767" type="qcurve" smooth="yes"/>
			<point x="2069" y="689" type="line" smooth="yes"/>
			<point x="2069" y="320"/>
			<point x="1679" y="-20"/>
			<point x="1379" y="-20" type="qcurve" smooth="yes"/>
			<point x="1080" y="-20"/>
			<point x="689" y="320"/>
		</contour>
		<contour>
			<point x="1317" y="479" type="line" smooth="yes"/>
			<point x="1317" y="416"/>
			<point x="1345" y="363"/>
			<point x="1379" y="363" type="qcurve" smooth="yes"/>
			<point x="1413" y="363"/>
			<point x="1441" y="416"/>
			<point x="1441" y="479" type="qcurve" smooth="yes"/>
			<point x="1441" y="973" type="line" smooth="yes"/>
			<point x="1441" y="1033"/>
			<point x="1413" y="1083"/>
			<point x="1379" y="1083" type="qcurve" smooth="yes"/>
			<point x="1345" y="1083"/>
			<point x="1317" y="1033"/>
			<point x="1317" y="973" type="qcurve" smooth="yes"/>
		</contour>
	</outline>
</glyph>
<glyph name="Ya" format="2">
	<unicode hex="042F"/>
	<advance width="1441"/>
	<outline>
		<contour>
			<point x="1401" y="0" type="line"/>
			<point x="1401" y="1456" type="line"/>
			<point x="637" y="1456" type="line" smooth="yes"/>
			<point x="369" y="1456"/>
			<point x="74" y="1183"/>
			<point x="74" y="952" type="qcurve" smooth="yes"/>
			<point x="74" y="713"/>
			<point x="357" y="443"/>
			<point x="597" y="443" type="qcurve"/>
			<point x="622" y="413" type="line"/>
			<point x="801" y="413" type="line"/>
			<point x="801" y="0" type="line"/>
		</contour>
		<contour>
			<point x="801" y="776" type="line"/>
			<point x="752" y="776" type="line" smooth="yes"/>
			<point x="713" y="776"/>
			<point x="681" y="851"/>
			<point x="681" y="910" type="qcurve" smooth="yes"/>
			<point x="681" y="969"/>
			<point x="713" y="1052"/>
			<point x="752" y="1052" type="qcurve" smooth="yes"/>
			<point x="801" y="1052" type="line"/>
		</contour>
		<contour>
			<point x="627" y="0" type="line"/>
			<point x="868" y="667" type="line"/>
			<point x="278" y="667" type="line"/>
			<point x="-10" y="0" type="line"/>
		</contour>
	</outline>
</glyph>
<glyph name="icyr" format="2">
  <advance width="1346"/>
  <unicode hex="0438"/>
  <outline>
    <contour>
      <point x="45" y="0" type="line"/>
      <point x="45" y="914" type="line"/>
      <point x="623" y="914" type="line"/>
      <point x="623" y="725" type="line" smooth="yes"/>
      <point x="623" y="683"/>
      <point x="623" y="580"/>
      <point x="622" y="539" type="qcurve"/>
      <point x="628" y="539" type="line"/>
      <point x="638" y="588"/>
      <point x="656" y="662"/>
      <point x="671" y="723" type="qcurve" smooth="yes"/>
      <point x="718" y="914" type="line"/>
      <point x="1306" y="914" type="line"/>
      <point x="1306" y="0" type="line"/>
      <point x="728" y="0" type="line"/>
      <point x="728" y="186" type="line" smooth="yes"/>
      <point x="728" y="258"/>
      <point x="728" y="341"/>
      <point x="729" y="383" type="qcurve"/>
      <point x="723" y="383" type="line"/>
      <point x="715" y="339"/>
      <point x="697" y="256"/>
      <point x="681" y="191" type="qcurve" smooth="yes"/>
      <point x="633" y="0" type="line"/>
    </contour>
  </outline>
</glyph>
<glyph name="ka" format="2">
  <advance width="1469"/>
  <unicode hex="043A"/>
  <guideline x="241" y="553" angle="90" identifier="lmgRx0QBdK"/>
  <guideline x="446" y="449" angle="90" identifier="81y230ieqc"/>
  <guideline x="241" y="553" angle="90" identifier="ZW5Iz1mBWB"/>
  <guideline x="241" y="553" angle="90" identifier="SEsoFV2OJK"/>
  <outline>
    <contour>
      <point x="814" y="0" type="line"/>
      <point x="589" y="352" type="line"/>
      <point x="1036" y="600" type="line"/>
      <point x="1489" y="0" type="line"/>
    </contour>
    <contour>
      <point x="335" y="654" type="line"/>
      <point x="645" y="654" type="line"/>
      <point x="795" y="914" type="line"/>
      <point x="1446" y="914" type="line"/>
      <point x="1014" y="264" type="line"/>
      <point x="335" y="264" type="line"/>
    </contour>
    <contour>
      <point x="625" y="914" type="line"/>
      <point x="625" y="0" type="line"/>
      <point x="45" y="0" type="line"/>
      <point x="45" y="914" type="line"/>
    </contour>
  </outline>
</glyph>
<glyph name="Kaverticalstrokecyr" format="2">
	<unicode hex="049C"/>
	<advance width="1813"/>
	<outline>
		<contour>
			<point x="40" y="0" type="line"/>
			<point x="40" y="1456" type="line"/>
			<point x="640" y="1456" type="line"/>
			<point x="640" y="0" type="line"/>
		</contour>
		<contour>
			<point x="1150" y="0" type="line"/>
			<point x="970" y="616" type="line"/>
			<point x="1527" y="837" type="line"/>
			<point x="1813" y="0" type="line"/>
		</contour>
		<contour>
			<point x="845" y="973" type="line"/>
			<point x="1007" y="973" type="line"/>
			<point x="1144" y="1456" type="line"/>
			<point x="1747" y="1456" type="line"/>
			<point x="1436" y="502" type="line"/>
			<point x="845" y="502" type="line"/>
		</contour>
		<contour>
			<point x="710" y="282" type="line"/>
			<point x="710" y="1193" type="line"/>
			<point x="980" y="1193" type="line"/>
			<point x="980" y="282" type="line"/>
		</contour>
	</outline>
	<guideline x="943" y="911" angle="90" identifier="LxfLwWU0sJ"/>
</glyph>
<glyph name="Tedescender-cy" format="2">
	<unicode hex="04AC"/>
	<advance width="1308"/>
	<outline>
		<contour>
			<point x="490" y="-290" type="line"/>
			<point x="490" y="0" type="line"/>
			<point x="350" y="0" type="line"/>
			<point x="350" y="990" type="line"/>
			<point x="4" y="990" type="line"/>
			<point x="4" y="1456" type="line"/>
			<point x="1304" y="1456" type="line"/>
			<point x="1304" y="990" type="line"/>
			<point x="960" y="990" type="line"/>
			<point x="960" y="470" type="line"/>
			<point x="1050" y="470" type="line"/>
			<point x="1050" y="-290" type="line"/>
		</contour>
	</outline>
</glyph>
<glyph name="tedescender-cy" format="2">
  <advance width="1180"/>
  <unicode hex="04AD"/>
  <outline>
    <contour>
      <point x="445" y="-270" type="line"/>
      <point x="445" y="0" type="line"/>
      <point x="300" y="0" type="line"/>
      <point x="300" y="524" type="line"/>
      <point x="20" y="524" type="line"/>
      <point x="20" y="914" type="line"/>
      <point x="1160" y="914" type="line"/>
      <point x="1160" y="524" type="line"/>
      <point x="880" y="524" type="line"/>
      <point x="880" y="390" type="line"/>
      <point x="965" y="390" type="line"/>
      <point x="965" y="-270" type="line"/>
    </contour>
  </outline>
</glyph>
<glyph name="ustraight" format="2">
	<unicode hex="04AF"/>
	<advance width="1265"/>
	<outline>
		<contour>
			<point x="349" y="-416" type="line"/>
			<point x="349" y="0" type="line"/>
			<point x="-10" y="914" type="line"/>
			<point x="541" y="914" type="line"/>
			<point x="635" y="590" type="line" smooth="yes"/>
			<point x="638" y="580"/>
			<point x="646" y="552"/>
			<point x="648" y="539" type="qcurve"/>
			<point x="652" y="539" type="line"/>
			<point x="654" y="552"/>
			<point x="662" y="580"/>
			<point x="665" y="590" type="qcurve" smooth="yes"/>
			<point x="769" y="914" type="line"/>
			<point x="1275" y="914" type="line"/>
			<point x="926" y="0" type="line"/>
			<point x="926" y="-416" type="line"/>
		</contour>
	</outline>
</glyph>
<glyph name="endash" format="2">
	<unicode hex="2013"/>
	<advance width="1124"/>
	<outline>
		<contour>
			<point x="0" y="399" type="line"/>
			<point x="0" y="851" type="line"/>
			<point x="1124" y="851" type="line"/>
			<point x="1124" y="399" type="line"/>
		</contour>
	</outline>
</glyph>
<glyph name="quotesinglbase" format="2">
  <advance width="683"/>
  <unicode hex="201A"/>
  <outline>
    <contour>
      <point x="643" y="220" type="line"/>
      <point x="643" y="50" type="line" smooth="yes"/>
      <point x="643" y="-104"/>
      <point x="486" y="-344"/>
      <point x="311" y="-459" type="qcurve"/>
      <point x="-20" y="-229" type="line"/>
      <point x="14" y="-186"/>
      <point x="45" y="-54"/>
      <point x="45" y="51" type="qcurve" smooth="yes"/>
      <point x="45" y="220" type="line"/>
    </contour>
  </outline>
</glyph>
<glyph name="dagger" format="2">
  <advance width="1103"/>
  <unicode hex="2020"/>
  <outline>
    <contour>
      <point x="306" y="-74" type="qcurve"/>
      <point x="302" y="208" type="line"/>
      <point x="323" y="448" type="line"/>
      <point x="323" y="652" type="line"/>
      <point x="72" y="652" type="line"/>
      <point x="72" y="1125" type="line"/>
      <point x="319" y="1125" type="line"/>
      <point x="306" y="1508" type="line"/>
      <point x="797" y="1508" type="line"/>
      <point x="784" y="1125" type="line"/>
      <point x="1031" y="1125" type="line"/>
      <point x="1031" y="652" type="line"/>
      <point x="780" y="652" type="line"/>
      <point x="780" y="448" type="line"/>
      <point x="801" y="208" type="line"/>
      <point x="797" y="-74" type="line"/>
      <point x="622" y="-414"/>
      <point x="483" y="-414"/>
    </contour>
  </outline>
</glyph>
<glyph name="second" format="2">
	<unicode hex="2033"/>
	<advance width="1501"/>
	<outline>
		<contour>
			<point x="40" y="964" type="line"/>
			<point x="335" y="1559" type="line"/>
			<point x="794" y="1306" type="line" smooth="yes"/>
			<point x="437" y="738" type="line"/>
		</contour>
		<contour>
			<point x="690" y="964" type="line"/>
			<point x="985" y="1559" type="line"/>
			<point x="1444" y="1306" type="line" smooth="yes"/>
			<point x="1087" y="738" type="line"/>
		</contour>
	</outline>
</glyph>
<glyph name="guilsinglleft" format="2">
	<unicode hex="2039"/>
	<advance width="761"/>
	<outline>
		<contour>
			<point x="18" y="459" type="line"/>
			<point x="18" y="523" type="line"/>
			<point x="319" y="921" type="line"/>
			<point x="751" y="921" type="line"/>
			<point x="462" y="489" type="line"/>
			<point x="751" y="58" type="line"/>
			<point x="319" y="58" type="line"/>
		</contour>
	</outline>
	<guideline x="0" y="901" angle="0" identifier="Amp5Ormvx4"/>
	<guideline x="0" y="555" angle="0" identifier="JDX5vz3jKp"/>
</glyph>
<glyph name="guilsinglright" format="2">
  <advance width="730"/>
  <unicode hex="203A"/>
  <guideline x="0" y="901" angle="0" identifier="Amp5Ormvx4"/>
  <guideline x="0" y="555" angle="0" identifier="JDX5vz3jKp"/>
  <outline>
    <contour>
      <point x="10" y="58" type="line"/>
      <point x="299" y="490" type="line"/>
      <point x="10" y="921" type="line"/>
      <point x="410" y="921" type="line"/>
      <point x="712" y="520" type="line"/>
      <point x="712" y="456" type="line"/>
      <point x="410" y="58" type="line"/>
    </contour>
  </outline>
</glyph>
<glyph name="uni20AD" format="2">
	<unicode hex="20AD"/>
	<advance width="1429"/>
	<outline>
		<contour>
			<point x="40" y="0" type="line"/>
			<point x="40" y="1456" type="line"/>
			<point x="640" y="1456" type="line"/>
			<point x="640" y="1103" type="line"/>
			<point x="867" y="1456" type="line"/>
			<point x="1460" y="1456" type="line"/>
			<point x="640" y="386" type="line"/>
			<point x="640" y="0" type="line"/>
		</contour>
		<contour>
			<point x="873" y="0" type="line"/>
			<point x="558" y="596" type="line"/>
			<point x="906" y="1063" type="line"/>
			<point x="1536" y="0" type="line"/>
		</contour>
		<contour>
			<point x="188" y="686" type="line"/>
			<point x="-9" y="686" type="line"/>
			<point x="-9" y="833" type="line"/>
			<point x="188" y="833" type="line"/>
		</contour>
		<contour>
			<point x="1281" y="833" type="line"/>
			<point x="1281" y="686" type="line"/>
			<point x="438" y="686" type="line"/>
			<point x="438" y="833" type="line"/>
		</contour>
	</outline>
</glyph>
<glyph name="numero" format="2">
	<unicode hex="2116"/>
	<advance width="2465"/>
	<outline>
		<contour>
			<point x="40" y="0" type="line"/>
			<point x="40" y="1456" type="line"/>
			<point x="627" y="1456" type="line"/>
			<point x="740" y="1041" type="line" smooth="yes"/>
			<point x="749" y="1008"/>
			<point x="773" y="921"/>
			<point x="780" y="888" type="qcurve"/>
			<point x="786" y="888" type="line"/>
			<point x="784" y="922"/>
			<point x="786" y="997"/>
			<point x="786" y="1031" type="qcurve" smooth="yes"/>
			<point x="786" y="1456" type="line"/>
			<point x="1287" y="1456" type="line"/>
			<point x="1287" y="0" type="line"/>
			<point x="719" y="0" type="line"/>
			<point x="584" y="426" type="line" smooth="yes"/>
			<point x="574" y="457"/>
			<point x="551" y="530"/>
			<point x="544" y="563" type="qcurve"/>
			<point x="538" y="563" type="line"/>
			<point x="541" y="529"/>
			<point x="541" y="481"/>
			<point x="541" y="446" type="qcurve" smooth="yes"/>
			<point x="541" y="0" type="line"/>
		</contour>
		<contour>
			<point x="1343" y="986" type="qcurve" smooth="yes"/>
			<point x="1343" y="1019" type="line" smooth="yes"/>
			<point x="1343" y="1238"/>
			<point x="1623" y="1473"/>
			<point x="1884" y="1473" type="qcurve" smooth="yes"/>
			<point x="2145" y="1473"/>
			<point x="2425" y="1238"/>
			<point x="2425" y="1019" type="qcurve" smooth="yes"/>
			<point x="2425" y="986" type="line" smooth="yes"/>
			<point x="2425" y="771"/>
			<point x="2145" y="539"/>
			<point x="1884" y="539" type="qcurve" smooth="yes"/>
			<point x="1623" y="539"/>
			<point x="1343" y="771"/>
		</contour>
		<contour>
			<point x="1822" y="1042" type="qcurve" smooth="yes"/>
			<point x="1822" y="967" type="line" smooth="yes"/>
			<point x="1822" y="933"/>
			<point x="1851" y="891"/>
			<point x="1880" y="891" type="qcurve" smooth="yes"/>
			<point x="1909" y="891"/>
			<point x="1938" y="933"/>
			<point x="1938" y="967" type="qcurve" smooth="yes"/>
			<point x="1938" y="1042" type="line" smooth="yes"/>
			<point x="1938" y="1072"/>
			<point x="1909" y="1110"/>
			<point x="1880" y="1110" type="qcurve" smooth="yes"/>
			<point x="1851" y="1110"/>
			<point x="1822" y="1072"/>
		</contour>
		<contour>
			<point x="1393" y="144" type="line"/>
			<point x="1393" y="457" type="line"/>
			<point x="2374" y="457" type="line"/>
			<point x="2374" y="144" type="line"/>
		</contour>
	</outline>
</glyph>
<glyph name="trademark" format="2">
	<unicode hex="2122"/>
	<advance width="1917"/>
	<outline>
		<contour>
			<point x="4" y="1204" type="line"/>
			<point x="4" y="1447" type="line"/>
			<point x="689" y="1447" type="line"/>
			<point x="689" y="1204" type="line"/>
			<point x="508" y="1204" type="line"/>
			<point x="508" y="690" type="line"/>
			<point x="186" y="690" type="line"/>
			<point x="186" y="1204" type="line"/>
		</contour>
		<contour>
			<point x="740" y="690" type="line"/>
			<point x="740" y="1447" type="line"/>
			<point x="1190" y="1447" type="line"/>
			<point x="1266" y="1129" type="line"/>
			<point x="1268" y="1129" type="line"/>
			<point x="1344" y="1447" type="line"/>
			<point x="1792" y="1447" type="line"/>
			<point x="1792" y="690" type="line"/>
			<point x="1481" y="690" type="line"/>
			<point x="1483" y="1052" type="line"/>
			<point x="1480" y="1052" type="line"/>
			<point x="1405" y="690" type="line"/>
			<point x="1120" y="690" type="line"/>
			<point x="1045" y="1052" type="line"/>
			<point x="1041" y="1052" type="line"/>
			<point x="1043" y="690" type="line"/>
		</contour>
	</outline>
</glyph>
<glyph name="bulletoperator" format="2">
	<unicode hex="2219"/>
	<advance width="1024"/>
	<outline>
		<contour>
			<point x="193" y="673" type="qcurve" smooth="yes"/>
			<point x="193" y="801"/>
			<point x="373" y="991"/>
			<point x="512" y="991" type="qcurve" smooth="yes"/>
			<point x="651" y="991"/>
			<point x="831" y="801"/>
			<point x="831" y="673" type="qcurve" smooth="yes"/>
			<point x="831" y="548"/>
			<point x="651" y="358"/>
			<point x="512" y="358" type="qcurve" smooth="yes"/>
			<point x="373" y="358"/>
			<point x="193" y="548"/>
		</contour>
	</outline>
</glyph>
<glyph name="greaterequal" format="2">
  <advance width="1200"/>
  <unicode hex="2265"/>
  <outline>
    <contour>
      <point x="88" y="29" type="line"/>
      <point x="88" y="537" type="line"/>
      <point x="603" y="684" type="line"/>
      <point x="88" y="821" type="line"/>
      <point x="88" y="1329" type="line"/>
      <point x="1111" y="919" type="line"/>
      <point x="1111" y="449" type="line"/>
    </contour>
    <contour>
      <point x="1090" y="1" type="line"/>
      <point x="78" y="1" type="line"/>
      <point x="78" y="304" type="line"/>
      <point x="1090" y="304" type="line"/>
    </contour>
  </outline>
</glyph>
<glyph name="De.bgr" format="2">
  <advance width="1481"/>
  <outline>
    <contour>
      <point x="911" y="-290" type="line"/>
      <point x="911" y="0" type="line"/>
      <point x="570" y="0" type="line"/>
      <point x="570" y="-290" type="line"/>
      <point x="10" y="-290" type="line"/>
      <point x="10" y="470" type="line"/>
      <point x="1471" y="470" type="line"/>
      <point x="1471" y="-290" type="line"/>
    </contour>
    <contour>
      <point x="1445" y="260" type="line"/>
      <point x="869" y="260" type="line"/>
      <point x="745" y="699" type="line" smooth="yes"/>
      <point x="742" y="710"/>
      <point x="735" y="738"/>
      <point x="730" y="757" type="qcurve"/>
      <point x="726" y="757" type="line"/>
      <point x="721" y="738"/>
      <point x="714" y="710"/>
      <point x="711" y="699" type="qcurve" smooth="yes"/>
      <point x="595" y="260" type="line"/>
      <point x="37" y="260" type="line"/>
      <point x="410" y="1465" type="line"/>
      <point x="1072" y="1465" type="line"/>
    </contour>
  </outline>
</glyph>
<glyph name="El.bgr" format="2">
  <advance width="1422"/>
  <outline>
    <contour>
      <point x="1482" y="0" type="line"/>
      <point x="876" y="0" type="line"/>
      <point x="715" y="609" type="line" smooth="yes"/>
      <point x="712" y="620"/>
      <point x="705" y="648"/>
      <point x="700" y="667" type="qcurve"/>
      <point x="696" y="667" type="line"/>
      <point x="691" y="648"/>
      <point x="684" y="620"/>
      <point x="681" y="609" type="qcurve" smooth="yes"/>
      <point x="528" y="0" type="line"/>
      <point x="-60" y="0" type="line"/>
      <point x="380" y="1465" type="line"/>
      <point x="1042" y="1465" type="line"/>
    </contour>
  </outline>
</glyph>
<glyph name="Zhe.bgr" format="2">
  <advance width="2158"/>
  <outline>
    <contour>
      <point x="1602" y="0" type="line"/>
      <point x="1287" y="596" type="line"/>
      <point x="1635" y="1063" type="line"/>
      <point x="2265" y="0" type="line"/>
    </contour>
    <contour>
      <point x="536" y="0" type="line"/>
      <point x="-107" y="0" type="line"/>
      <point x="523" y="1063" type="line"/>
      <point x="851" y="596" type="line"/>
    </contour>
    <contour>
      <point x="769" y="0" type="line"/>
      <point x="769" y="386" type="line"/>
      <point x="-51" y="1456" type="line"/>
      <point x="542" y="1456" type="line"/>
      <point x="769" y="1103" type="line"/>
      <point x="769" y="1456" type="line"/>
      <point x="1369" y="1456" type="line"/>
      <point x="1369" y="1103" type="line"/>
      <point x="1596" y="1456" type="line"/>
      <point x="2189" y="1456" type="line"/>
      <point x="1369" y="386" type="line"/>
      <point x="1369" y="0" type="line"/>
    </contour>
  </outline>
</glyph>
<glyph name="breve.cyr" format="2">
  <advance width="1028"/>
  <anchor x="514.0" y="914" name="_top"/>
  <anchor x="514.0" y="914" name="top"/>
  <outline>
    <contour>
      <point x="514" y="1288" type="qcurve" smooth="yes"/>
      <point x="582" y="1288"/>
      <point x="644" y="1377"/>
      <point x="660" y="1464" type="qcurve"/>
      <point x="988" y="1373" type="line"/>
      <point x="938" y="1196"/>
      <point x="698" y="1000"/>
      <point x="514" y="1000" type="qcurve" smooth="yes"/>
      <point x="330" y="1000"/>
      <point x="90" y="1196"/>
      <point x="40" y="1373" type="qcurve"/>
      <point x="368" y="1464" type="line"/>
      <point x="384" y="1377"/>
      <point x="446" y="1288"/>
    </contour>
  </outline>
</glyph>
<glyph name="brevecomb.case" format="2">
	<advance width="1024"/>
	<outline>
		<contour>
			<point x="727" y="2011" type="qcurve"/>
			<point x="985" y="1935" type="line"/>
			<point x="936" y="1797"/>
			<point x="690" y="1564"/>
			<point x="513" y="1564" type="qcurve" smooth="yes"/>
			<point x="354" y="1564"/>
			<point x="100" y="1778"/>
			<point x="41" y="1937" type="qcurve"/>
			<point x="312" y="2011" type="line"/>
			<point x="343" y="1972"/>
			<point x="448" y="1907"/>
			<point x="516" y="1907" type="qcurve" smooth="yes"/>
			<point x="590" y="1907"/>
			<point x="695" y="1970"/>
		</contour>
	</outline>
</glyph>
<glyph name="brevegravecomb.case" format="2">
  <advance width="1024"/>
  <anchor x="512.0" y="1456" name="_top"/>
  <outline>
    <contour>
      <point x="715" y="1873" type="qcurve"/>
      <point x="959" y="1810" type="line"/>
      <point x="913" y="1695"/>
      <point x="680" y="1500"/>
      <point x="512" y="1500" type="qcurve" smooth="yes"/>
      <point x="361" y="1500"/>
      <point x="120" y="1679"/>
      <point x="64" y="1811" type="qcurve"/>
      <point x="321" y="1873" type="line"/>
      <point x="350" y="1841"/>
      <point x="450" y="1786"/>
      <point x="515" y="1786" type="qcurve" smooth="yes"/>
      <point x="585" y="1786"/>
      <point x="684" y="1839"/>
    </contour>
    <contour>
      <point x="374" y="1923" type="line"/>
      <point x="24" y="2213" type="line"/>
      <point x="439" y="2470" type="line"/>
      <point x="798" y="2108" type="line"/>
    </contour>
  </outline>
</glyph>
<glyph name="breveinvertedcomb.case" format="2">
  <advance width="1024"/>
  <anchor x="512.0" y="1456" name="_top"/>
  <anchor x="512.0" y="1947.0" name="top"/>
  <outline>
    <contour>
      <point x="299.0" y="1500.0" type="qcurve"/>
      <point x="41.0" y="1576.0" type="line"/>
      <point x="90.0" y="1714.0"/>
      <point x="336.0" y="1947.0"/>
      <point x="513.0" y="1947.0" type="qcurve" smooth="yes"/>
      <point x="672.0" y="1947.0"/>
      <point x="926.0" y="1733.0"/>
      <point x="985.0" y="1574.0" type="qcurve"/>
      <point x="714.0" y="1500.0" type="line"/>
      <point x="683.0" y="1539.0"/>
      <point x="578.0" y="1604.0"/>
      <point x="510.0" y="1604.0" type="qcurve" smooth="yes"/>
      <point x="436.0" y="1604.0"/>
      <point x="331.0" y="1541.0"/>
    </contour>
  </outline>
</glyph>
<glyph name="brevetildecomb.case" format="2">
  <advance width="1024"/>
  <anchor x="512.0" y="1456" name="_top"/>
  <outline>
    <contour>
      <point x="715" y="1873" type="qcurve"/>
      <point x="959" y="1810" type="line"/>
      <point x="913" y="1695"/>
      <point x="680" y="1500"/>
      <point x="512" y="1500" type="qcurve" smooth="yes"/>
      <point x="361" y="1500"/>
      <point x="120" y="1679"/>
      <point x="64" y="1811" type="qcurve"/>
      <point x="321" y="1873" type="line"/>
      <point x="350" y="1841"/>
      <point x="450" y="1786"/>
      <point x="515" y="1786" type="qcurve" smooth="yes"/>
      <point x="585" y="1786"/>
      <point x="684" y="1839"/>
    </contour>
    <contour>
      <point x="46" y="2091" type="line"/>
      <point x="87" y="2192"/>
      <point x="253" y="2347"/>
      <point x="340" y="2347" type="qcurve" smooth="yes"/>
      <point x="391" y="2347"/>
      <point x="483" y="2325"/>
      <point x="529" y="2304" type="qcurve" smooth="yes"/>
      <point x="570" y="2286"/>
      <point x="666" y="2246"/>
      <point x="713" y="2246" type="qcurve" smooth="yes"/>
      <point x="764" y="2246"/>
      <point x="850" y="2292"/>
      <point x="877" y="2324" type="qcurve"/>
      <point x="976" y="2150" type="line"/>
      <point x="932" y="2040"/>
      <point x="783" y="1923"/>
      <point x="697" y="1923" type="qcurve" smooth="yes"/>
      <point x="635" y="1923"/>
      <point x="519" y="1963"/>
      <point x="481" y="1978" type="qcurve" smooth="yes"/>
      <point x="439" y="1995"/>
      <point x="355" y="2028"/>
      <point x="319" y="2028" type="qcurve" smooth="yes"/>
      <point x="263" y="2028"/>
      <point x="162" y="1961"/>
      <point x="140" y="1935" type="qcurve"/>
    </contour>
  </outline>
</glyph>
<glyph name="caroncomb.case" format="2">
  <advance width="1024"/>
  <anchor x="512.0" y="1456" name="_top"/>
  <anchor x="512.0" y="1891.0" name="top"/>
  <outline>
    <contour>
      <point x="311.0" y="1500.0" type="line"/>
      <point x="78.0" y="1891.0" type="line"/>
      <point x="457.0" y="1891.0" type="line"/>
      <point x="510.0" y="1788.0" type="line"/>
      <point x="563.0" y="1891.0" type="line"/>
      <point x="938.0" y="1891.0" type="line"/>
      <point x="710.0" y="1500.0" type="line"/>
    </contour>
  </outline>
</glyph>
<glyph name="cedillacomb.case" format="2">
  <advance width="1024"/>
  <anchor x="512.0" y="0" name="_bottom"/>
  <anchor x="512.0" y="-512" name="bottom"/>
  <outline>
    <contour>
      <point x="384" y="42" type="line"/>
      <point x="648" y="42" type="line"/>
      <point x="610" y="-69" type="line"/>
      <point x="711" y="-81"/>
      <point x="850" y="-169"/>
      <point x="850" y="-271" type="qcurve" smooth="yes"/>
      <point x="850" y="-381"/>
      <point x="636" y="-512"/>
      <point x="271" y="-512" type="qcurve"/>
      <point x="258" y="-342" type="line"/>
      <point x="359" y="-342"/>
      <point x="443" y="-310"/>
      <point x="443" y="-276" type="qcurve"/>
      <point x="443" y="-243"/>
      <point x="383" y="-220"/>
      <point x="307" y="-214" type="qcurve"/>
    </contour>
  </outline>
</glyph>
<glyph name="circumflexcombstack.case" format="2">
  <advance width="1024"/>
  <anchor x="512.0" y="1456" name="_top"/>
  <anchor x="512.0" y="1940" name="top"/>
  <outline>
    <contour>
      <point x="705" y="1940" type="line"/>
      <point x="938" y="1579" type="line"/>
      <point x="559" y="1579" type="line"/>
      <point x="506" y="1682" type="line"/>
      <point x="453" y="1579" type="line"/>
      <point x="78" y="1579" type="line"/>
      <point x="306" y="1940" type="line"/>
    </contour>
  </outline>
</glyph>
<glyph name="circumflexgravecomb.case" format="2">
  <advance width="1024"/>
  <anchor x="512.0" y="1456" name="_top"/>
  <outline>
    <contour>
      <point x="711" y="1861" type="line"/>
      <point x="944" y="1500" type="line"/>
      <point x="565" y="1500" type="line"/>
      <point x="512" y="1603" type="line"/>
      <point x="459" y="1500" type="line"/>
      <point x="84" y="1500" type="line"/>
      <point x="312" y="1861" type="line"/>
    </contour>
    <contour>
      <point x="929" y="1764" type="line"/>
      <point x="579" y="2054" type="line"/>
      <point x="994" y="2311" type="line"/>
      <point x="1353" y="1949" type="line"/>
    </contour>
  </outline>
</glyph>
<glyph name="circumflexhookabovecomb" format="2">
  <advance width="1024"/>
  <anchor x="512.0" y="914" name="_top"/>
  <outline>
    <contour>
      <point x="711" y="1391" type="line"/>
      <point x="944" y="1000" type="line"/>
      <point x="565" y="1000" type="line"/>
      <point x="512" y="1103" type="line"/>
      <point x="459" y="1000" type="line"/>
      <point x="84" y="1000" type="line"/>
      <point x="312" y="1391" type="line"/>
    </contour>
    <contour>
      <point x="711" y="1349" type="line"/>
      <point x="711" y="1390" type="line" smooth="yes"/>
      <point x="711" y="1477"/>
      <point x="802" y="1559"/>
      <point x="868" y="1563" type="qcurve" smooth="yes"/>
      <point x="914" y="1568"/>
      <point x="938" y="1581"/>
      <point x="938" y="1600" type="qcurve" smooth="yes"/>
      <point x="938" y="1616"/>
      <point x="900" y="1633"/>
      <point x="854" y="1633" type="qcurve" smooth="yes"/>
      <point x="801" y="1633"/>
      <point x="687" y="1605"/>
      <point x="677" y="1601" type="qcurve"/>
      <point x="607" y="1782" type="line"/>
      <point x="643" y="1802"/>
      <point x="819" y="1845"/>
      <point x="917" y="1845" type="qcurve" smooth="yes"/>
      <point x="1060" y="1845"/>
      <point x="1220" y="1725"/>
      <point x="1220" y="1624" type="qcurve" smooth="yes"/>
      <point x="1220" y="1518"/>
      <point x="1100" y="1393"/>
      <point x="915" y="1382" type="qcurve"/>
      <point x="915" y="1349" type="line"/>
    </contour>
  </outline>
</glyph>
<glyph name="commaaccentcomb.case" format="2">
  <advance width="1024"/>
  <anchor x="512.0" y="0" name="_bottom"/>
  <anchor x="512.0" y="-500.0" name="bottom"/>
  <outline>
    <contour>
      <point x="175.0" y="-497.0" type="line"/>
      <point x="204.0" y="-393.0"/>
      <point x="254.0" y="-211.0"/>
      <point x="277.0" y="-83.0" type="qcurve"/>
      <point x="799.0" y="-81.0" type="line"/>
      <point x="658.0" y="-500.0" type="line"/>
    </contour>
  </outline>
</glyph>
<glyph name="dieresiscomb.case" format="2">
  <advance width="1024"/>
  <anchor x="512.0" y="1456" name="_top"/>
  <anchor x="512.0" y="1929.0" name="top"/>
  <outline>
    <contour>
      <point x="12.0" y="1712.0" type="qcurve" smooth="yes"/>
      <point x="12.0" y="1803.0"/>
      <point x="130.0" y="1929.0"/>
      <point x="245.0" y="1929.0" type="qcurve" smooth="yes"/>
      <point x="358.0" y="1929.0"/>
      <point x="477.0" y="1803.0"/>
      <point x="477.0" y="1712.0" type="qcurve" smooth="yes"/>
      <point x="477.0" y="1626.0"/>
      <point x="358.0" y="1502.0"/>
      <point x="245.0" y="1502.0" type="qcurve" smooth="yes"/>
      <point x="130.0" y="1502.0"/>
      <point x="12.0" y="1626.0"/>
    </contour>
    <contour>
      <point x="547.0" y="1710.0" type="qcurve" smooth="yes"/>
      <point x="547.0" y="1801.0"/>
      <point x="663.0" y="1927.0"/>
      <point x="778.0" y="1927.0" type="qcurve" smooth="yes"/>
      <point x="889.0" y="1927.0"/>
      <point x="1011.0" y="1801.0"/>
      <point x="1011.0" y="1710.0" type="qcurve" smooth="yes"/>
      <point x="1011.0" y="1624.0"/>
      <point x="889.0" y="1500.0"/>
      <point x="778.0" y="1500.0" type="qcurve" smooth="yes"/>
      <point x="663.0" y="1500.0"/>
      <point x="547.0" y="1624.0"/>
    </contour>
  </outline>
</glyph>
<glyph name="dieresiscombstack.case" format="2">
  <advance width="1024"/>
  <anchor x="512.0" y="1456" name="_top"/>
  <anchor x="512.0" y="1867" name="top"/>
  <outline>
    <contour>
      <point x="57.0" y="1682" type="qcurve" smooth="yes"/>
      <point x="57.0" y="1760"/>
      <point x="164.0" y="1868"/>
      <point x="269.0" y="1868" type="qcurve" smooth="yes"/>
      <point x="372.0" y="1868"/>
      <point x="480.0" y="1760"/>
      <point x="480.0" y="1682" type="qcurve" smooth="yes"/>
      <point x="480.0" y="1608"/>
      <point x="372.0" y="1502"/>
      <point x="269.0" y="1502" type="qcurve" smooth="yes"/>
      <point x="164.0" y="1502"/>
      <point x="57.0" y="1608"/>
    </contour>
    <contour>
      <point x="544.0" y="1680" type="qcurve" smooth="yes"/>
      <point x="544.0" y="1758"/>
      <point x="650.0" y="1866"/>
      <point x="754.0" y="1866" type="qcurve" smooth="yes"/>
      <point x="855.0" y="1866"/>
      <point x="966.0" y="1758"/>
      <point x="966.0" y="1680" type="qcurve" smooth="yes"/>
      <point x="966.0" y="1606"/>
      <point x="855.0" y="1500"/>
      <point x="754.0" y="1500" type="qcurve" smooth="yes"/>
      <point x="650.0" y="1500"/>
      <point x="544.0" y="1606"/>
    </contour>
  </outline>
</glyph>
<glyph name="dotaccentcombstack.case" format="2">
  <advance width="1024"/>
  <anchor x="512.0" y="1456" name="_top"/>
  <anchor x="512.0" y="1866" name="top"/>
  <outline>
    <contour>
      <point x="300" y="1680" type="qcurve" smooth="yes"/>
      <point x="300" y="1758"/>
      <point x="407" y="1866"/>
      <point x="512" y="1866" type="qcurve" smooth="yes"/>
      <point x="615" y="1866"/>
      <point x="723" y="1758"/>
      <point x="723" y="1680" type="qcurve" smooth="yes"/>
      <point x="723" y="1606"/>
      <point x="615" y="1500"/>
      <point x="512" y="1500" type="qcurve" smooth="yes"/>
      <point x="407" y="1500"/>
      <point x="300" y="1606"/>
    </contour>
  </outline>
</glyph>
<glyph name="gravecomb.case" format="2">
  <advance width="1024"/>
  <outline>
    <contour>
      <point x="431.0" y="1500" type="line"/>
      <point x="97.0" y="1847" type="line"/>
      <point x="559.0" y="2081" type="line"/>
      <point x="860.0" y="1665" type="line"/>
    </contour>
  </outline>
</glyph>
<glyph name="gravecombstack.case" format="2">
	<advance width="1024"/>
	<outline>
		<contour>
			<point x="495" y="1585" type="line"/>
			<point x="145" y="1875" type="line"/>
			<point x="560" y="2132" type="line"/>
			<point x="919" y="1770" type="line"/>
		</contour>
	</outline>
</glyph>
<glyph name="hard.bgr" format="2">
  <advance width="1540"/>
  <outline>
    <contour>
      <point x="220" y="336" type="qcurve" smooth="yes"/>
      <point x="220" y="524" type="line"/>
      <point x="20" y="524" type="line"/>
      <point x="20" y="914" type="line"/>
      <point x="799" y="914" type="line"/>
      <point x="799" y="707" type="line"/>
      <point x="1008" y="707" type="line" smooth="yes"/>
      <point x="1264" y="707"/>
      <point x="1520" y="511"/>
      <point x="1520" y="336" type="qcurve" smooth="yes"/>
      <point x="1520" y="153"/>
      <point x="1198" y="-40"/>
      <point x="869" y="-40" type="qcurve" smooth="yes"/>
      <point x="540" y="-40"/>
      <point x="220" y="153"/>
    </contour>
    <contour>
      <point x="799" y="335" type="line" smooth="yes"/>
      <point x="799" y="289"/>
      <point x="834" y="250"/>
      <point x="869" y="250" type="qcurve" smooth="yes"/>
      <point x="908" y="250"/>
      <point x="939" y="291"/>
      <point x="939" y="335" type="qcurve" smooth="yes"/>
      <point x="939" y="377"/>
      <point x="905" y="417"/>
      <point x="862" y="417" type="qcurve" smooth="yes"/>
      <point x="799" y="417" type="line"/>
    </contour>
  </outline>
</glyph>
<glyph name="hookabovecomb.case" format="2">
	<advance width="1024"/>
	<outline>
		<contour>
			<point x="327" y="1537" type="line"/>
			<point x="327" y="1602" type="line" smooth="yes"/>
			<point x="327" y="1679"/>
			<point x="423" y="1752"/>
			<point x="492" y="1756" type="qcurve" smooth="yes"/>
			<point x="539" y="1760"/>
			<point x="564" y="1772"/>
			<point x="564" y="1789" type="qcurve" smooth="yes"/>
			<point x="564" y="1802"/>
			<point x="525" y="1818"/>
			<point x="477" y="1818" type="qcurve" smooth="yes"/>
			<point x="422" y="1818"/>
			<point x="302" y="1793"/>
			<point x="291" y="1790" type="qcurve"/>
			<point x="212" y="1973" type="line"/>
			<point x="253" y="1993"/>
			<point x="452" y="2037"/>
			<point x="562" y="2037" type="qcurve" smooth="yes"/>
			<point x="724" y="2037"/>
			<point x="905" y="1916"/>
			<point x="905" y="1814" type="qcurve" smooth="yes"/>
			<point x="905" y="1707"/>
			<point x="769" y="1582"/>
			<point x="560" y="1571" type="qcurve"/>
			<point x="560" y="1537" type="line"/>
		</contour>
	</outline>
</glyph>
<glyph name="horncomb.case" format="2">
	<advance width="1024"/>
	<outline>
		<contour>
			<point x="0" y="1456" type="line"/>
			<point x="73" y="1456" type="line" smooth="yes"/>
			<point x="115" y="1456"/>
			<point x="178" y="1493"/>
			<point x="178" y="1547" type="qcurve" smooth="yes"/>
			<point x="178" y="1595"/>
			<point x="167" y="1673"/>
			<point x="158" y="1711" type="qcurve"/>
			<point x="441" y="1711" type="line"/>
			<point x="467" y="1676"/>
			<point x="511" y="1566"/>
			<point x="511" y="1478" type="qcurve" smooth="yes"/>
			<point x="511" y="1355"/>
			<point x="323" y="1239"/>
			<point x="194" y="1239" type="qcurve" smooth="yes"/>
			<point x="132" y="1239"/>
			<point x="35" y="1254"/>
			<point x="0" y="1267" type="qcurve"/>
		</contour>
	</outline>
</glyph>
<glyph name="idotless" format="2">
  <advance width="649"/>
  <anchor x="324.5" y="914" name="top"/>
  <outline>
    <contour>
      <point x="28" y="0" type="line"/>
      <point x="28" y="914" type="line"/>
      <point x="621" y="914" type="line"/>
      <point x="621" y="0" type="line"/>
    </contour>
  </outline>
</glyph>
<glyph name="nine.prop" format="2">
	<advance width="1224"/>
	<outline>
		<contour>
			<point x="17" y="938" type="qcurve" smooth="yes"/>
			<point x="17" y="1194"/>
			<point x="361" y="1475"/>
			<point x="605" y="1475" type="qcurve" smooth="yes"/>
			<point x="876" y="1475"/>
			<point x="1186" y="1175"/>
			<point x="1186" y="874" type="qcurve" smooth="yes"/>
			<point x="1186" y="749" type="line" smooth="yes"/>
			<point x="1186" y="395"/>
			<point x="732" y="-21"/>
			<point x="309" y="-21" type="qcurve" smooth="yes"/>
			<point x="166" y="-21" type="line"/>
			<point x="166" y="434" type="line"/>
			<point x="285" y="434" type="line" smooth="yes"/>
			<point x="475" y="432"/>
			<point x="651" y="584"/>
			<point x="651" y="894" type="qcurve" smooth="yes"/>
			<point x="651" y="927" type="line" smooth="yes"/>
			<point x="651" y="1051"/>
			<point x="622" y="1087"/>
			<point x="601" y="1087" type="qcurve" smooth="yes"/>
			<point x="580" y="1087"/>
			<point x="554" y="1052"/>
			<point x="554" y="917" type="qcurve" smooth="yes"/>
			<point x="554" y="841"/>
			<point x="572" y="782"/>
			<point x="598" y="782" type="qcurve" smooth="yes"/>
			<point x="621" y="782"/>
			<point x="651" y="819"/>
			<point x="651" y="859" type="qcurve"/>
			<point x="693" y="858" type="line"/>
			<point x="693" y="671"/>
			<point x="493" y="489"/>
			<point x="367" y="489" type="qcurve" smooth="yes"/>
			<point x="215" y="489"/>
			<point x="17" y="717"/>
		</contour>
	</outline>
</glyph>
<glyph name="ogonekcomb.case" format="2">
  <advance width="1024"/>
  <anchor x="512.0" y="0" name="_ogonek"/>
  <anchor x="512.0" y="-490.0" name="bottom"/>
  <outline>
    <contour>
      <point x="164.0" y="-275.0" type="qcurve" smooth="yes"/>
      <point x="164.0" y="-186.0"/>
      <point x="324.0" y="-9.0"/>
      <point x="529.0" y="62.0" type="qcurve"/>
      <point x="742.0" y="-1.0" type="line"/>
      <point x="700.0" y="-31.0"/>
      <point x="629.0" y="-100.0"/>
      <point x="629.0" y="-141.0" type="qcurve" smooth="yes"/>
      <point x="629.0" y="-161.0"/>
      <point x="665.0" y="-186.0"/>
      <point x="704.0" y="-186.0" type="qcurve" smooth="yes"/>
      <point x="737.0" y="-186.0"/>
      <point x="789.0" y="-174.0"/>
      <point x="802.0" y="-168.0" type="qcurve"/>
      <point x="829.0" y="-440.0" type="line"/>
      <point x="782.0" y="-458.0"/>
      <point x="636.0" y="-490.0"/>
      <point x="525.0" y="-490.0" type="qcurve" smooth="yes"/>
      <point x="373.0" y="-490.0"/>
      <point x="164.0" y="-380.0"/>
    </contour>
  </outline>
</glyph>
<glyph name="one.prop" format="2">
	<advance width="1045"/>
	<outline>
		<contour>
			<point x="348" y="0" type="line"/>
			<point x="348" y="953" type="line"/>
			<point x="102" y="830" type="line"/>
			<point x="102" y="1302" type="line"/>
			<point x="441" y="1454" type="line"/>
			<point x="945" y="1454" type="line"/>
			<point x="945" y="0" type="line"/>
		</contour>
	</outline>
</glyph>
<glyph name="seven.prop" format="2">
  <advance width="1149"/>
  <outline>
    <contour>
      <point x="118" y="0" type="line"/>
      <point x="504" y="997" type="line"/>
      <point x="33" y="997" type="line"/>
      <point x="33" y="1456" type="line"/>
      <point x="1114" y="1456" type="line"/>
      <point x="1114" y="1034" type="line"/>
      <point x="746" y="0" type="line"/>
    </contour>
  </outline>
</glyph>
<glyph name="six.prop" format="2">
	<advance width="1224"/>
	<outline>
		<contour>
			<point x="25" y="581" type="qcurve" smooth="yes"/>
			<point x="25" y="706" type="line" smooth="yes"/>
			<point x="25" y="1060"/>
			<point x="477" y="1476"/>
			<point x="897" y="1476" type="qcurve" smooth="yes"/>
			<point x="1039" y="1476" type="line"/>
			<point x="1039" y="1008" type="line"/>
			<point x="921" y="1008" type="line" smooth="yes"/>
			<point x="732" y="1008"/>
			<point x="557" y="858"/>
			<point x="557" y="548" type="qcurve" smooth="yes"/>
			<point x="557" y="528" type="line" smooth="yes"/>
			<point x="557" y="394"/>
			<point x="586" y="358"/>
			<point x="606" y="358" type="qcurve" smooth="yes"/>
			<point x="628" y="358"/>
			<point x="653" y="393"/>
			<point x="653" y="538" type="qcurve" smooth="yes"/>
			<point x="653" y="601"/>
			<point x="635" y="660"/>
			<point x="610" y="660" type="qcurve" smooth="yes"/>
			<point x="586" y="660"/>
			<point x="557" y="623"/>
			<point x="557" y="583" type="qcurve"/>
			<point x="515" y="584" type="line"/>
			<point x="515" y="771"/>
			<point x="714" y="953"/>
			<point x="839" y="953" type="qcurve" smooth="yes"/>
			<point x="991" y="953"/>
			<point x="1187" y="738"/>
			<point x="1187" y="517" type="qcurve" smooth="yes"/>
			<point x="1187" y="261"/>
			<point x="846" y="-20"/>
			<point x="603" y="-20" type="qcurve" smooth="yes"/>
			<point x="333" y="-20"/>
			<point x="25" y="280"/>
		</contour>
	</outline>
</glyph>
<glyph name="soft.bgr" format="2">
  <advance width="1365"/>
  <outline>
    <contour>
      <point x="45" y="336" type="qcurve" smooth="yes"/>
      <point x="45" y="914" type="line"/>
      <point x="624" y="914" type="line"/>
      <point x="624" y="707" type="line"/>
      <point x="833" y="707" type="line" smooth="yes"/>
      <point x="1089" y="707"/>
      <point x="1345" y="511"/>
      <point x="1345" y="336" type="qcurve" smooth="yes"/>
      <point x="1345" y="153"/>
      <point x="1023" y="-40"/>
      <point x="694" y="-40" type="qcurve" smooth="yes"/>
      <point x="365" y="-40"/>
      <point x="45" y="153"/>
    </contour>
    <contour>
      <point x="624" y="335" type="line" smooth="yes"/>
      <point x="624" y="289"/>
      <point x="659" y="250"/>
      <point x="694" y="250" type="qcurve" smooth="yes"/>
      <point x="733" y="250"/>
      <point x="764" y="291"/>
      <point x="764" y="335" type="qcurve" smooth="yes"/>
      <point x="764" y="377"/>
      <point x="730" y="417"/>
      <point x="687" y="417" type="qcurve" smooth="yes"/>
      <point x="624" y="417" type="line"/>
    </contour>
  </outline>
</glyph>
<glyph name="three.prop" format="2">
	<advance width="1245"/>
	<outline>
		<contour>
			<point x="16" y="453" type="qcurve" smooth="yes"/>
			<point x="16" y="579" type="line"/>
			<point x="547" y="579" type="line"/>
			<point x="547" y="479" type="line" smooth="yes"/>
			<point x="548" y="413"/>
			<point x="581" y="359"/>
			<point x="614" y="359" type="qcurve" smooth="yes"/>
			<point x="644" y="359"/>
			<point x="677" y="405"/>
			<point x="677" y="480" type="qcurve" smooth="yes"/>
			<point x="677" y="547"/>
			<point x="644" y="594"/>
			<point x="604" y="594" type="qcurve" smooth="yes"/>
			<point x="453" y="594" type="line"/>
			<point x="453" y="896" type="line"/>
			<point x="600" y="896" type="line" smooth="yes"/>
			<point x="627" y="896"/>
			<point x="662" y="944"/>
			<point x="662" y="999" type="qcurve" smooth="yes"/>
			<point x="662" y="1056"/>
			<point x="630" y="1095"/>
			<point x="601" y="1095" type="qcurve" smooth="yes"/>
			<point x="571" y="1095"/>
			<point x="549" y="1034"/>
			<point x="549" y="977" type="qcurve" smooth="yes"/>
			<point x="549" y="911" type="line"/>
			<point x="34" y="911" type="line"/>
			<point x="34" y="997" type="line" smooth="yes"/>
			<point x="31" y="1229"/>
			<point x="358" y="1476"/>
			<point x="623" y="1476" type="qcurve"/>
			<point x="896" y="1476"/>
			<point x="1195" y="1253"/>
			<point x="1195" y="1074" type="qcurve" smooth="yes"/>
			<point x="1195" y="972"/>
			<point x="1109" y="817"/>
			<point x="1021" y="767" type="qcurve"/>
			<point x="1021" y="763" type="line"/>
			<point x="1091" y="738"/>
			<point x="1222" y="577"/>
			<point x="1222" y="437" type="qcurve" smooth="yes"/>
			<point x="1222" y="246"/>
			<point x="885" y="-20"/>
			<point x="614" y="-20" type="qcurve" smooth="yes"/>
			<point x="342" y="-20"/>
			<point x="16" y="227"/>
		</contour>
	</outline>
</glyph>
<glyph name="tildecomb.case" format="2">
  <advance width="1024"/>
  <anchor x="512.0" y="1456" name="_top"/>
  <anchor x="512.0" y="1976.0" name="top"/>
  <outline>
    <contour>
      <point x="11.0" y="1689.0" type="line"/>
      <point x="55.0" y="1802.0"/>
      <point x="234.0" y="1976.0"/>
      <point x="327.0" y="1976.0" type="qcurve" smooth="yes"/>
      <point x="382.0" y="1976.0"/>
      <point x="481.0" y="1951.0"/>
      <point x="530.0" y="1928.0" type="qcurve" smooth="yes"/>
      <point x="575.0" y="1907.0"/>
      <point x="678.0" y="1863.0"/>
      <point x="729.0" y="1863.0" type="qcurve" smooth="yes"/>
      <point x="783.0" y="1863.0"/>
      <point x="876.0" y="1914.0"/>
      <point x="905.0" y="1950.0" type="qcurve"/>
      <point x="1012.0" y="1755.0" type="line"/>
      <point x="964.0" y="1632.0"/>
      <point x="804.0" y="1500.0"/>
      <point x="711.0" y="1500.0" type="qcurve" smooth="yes"/>
      <point x="645.0" y="1500.0"/>
      <point x="520.0" y="1545.0"/>
      <point x="479.0" y="1562.0" type="qcurve" smooth="yes"/>
      <point x="434.0" y="1581.0"/>
      <point x="343.0" y="1618.0"/>
      <point x="305.0" y="1618.0" type="qcurve" smooth="yes"/>
      <point x="244.0" y="1618.0"/>
      <point x="136.0" y="1543.0"/>
      <point x="112.0" y="1514.0" type="qcurve"/>
    </contour>
  </outline>
</glyph>
